<svg width="26" height="8" viewBox="0 0 26 8" fill="none" xmlns="http://www.w3.org/2000/svg">
<path d="M3.66667 1C2.2 1 1 2.2 1 3.66667C1 5.13333 2.2 6.33333 3.66667 6.33333C5.13333 6.33333 6.33333 5.13333 6.33333 3.66667C6.33333 2.2 5.13333 1 3.66667 1Z" stroke="white" stroke-width="1.5"/>
<path d="M22.3333 1C20.8666 1 19.6666 2.2 19.6666 3.66667C19.6666 5.13333 20.8666 6.33333 22.3333 6.33333C23.8 6.33333 25 5.13333 25 3.66667C25 2.2 23.8 1 22.3333 1Z" stroke="white" stroke-width="1.5"/>
<path d="M13 1C11.5334 1 10.3334 2.2 10.3334 3.66667C10.3334 5.13333 11.5334 6.33333 13 6.33333C14.4667 6.33333 15.6667 5.13333 15.6667 3.66667C15.6667 2.2 14.4667 1 13 1Z" stroke="white" stroke-width="1.5"/>
</svg>
