<svg width="49" height="46" viewBox="0 0 49 46" fill="none" xmlns="http://www.w3.org/2000/svg">
<path d="M17.987 3.83337L10.5962 10.7909" stroke="white" stroke-width="1.5" stroke-miterlimit="10" stroke-linecap="round" stroke-linejoin="round"/>
<path d="M31.0129 3.83337L38.4038 10.7909" stroke="white" stroke-width="1.5" stroke-miterlimit="10" stroke-linecap="round" stroke-linejoin="round"/>
<path d="M4.08337 15.0459C4.08337 11.5 6.10462 11.2125 8.61587 11.2125H40.3842C42.8955 11.2125 44.9167 11.5 44.9167 15.0459C44.9167 19.1667 42.8955 18.8792 40.3842 18.8792H8.61587C6.10462 18.8792 4.08337 19.1667 4.08337 15.0459Z" stroke="white" stroke-width="1.5"/>
<path d="M19.9266 26.8334V33.6375" stroke="white" stroke-width="1.5" stroke-linecap="round"/>
<path d="M29.3184 26.8334V33.6375" stroke="white" stroke-width="1.5" stroke-linecap="round"/>
<path d="M7.14587 19.1666L10.0246 35.7266C10.678 39.445 12.25 42.1666 18.0892 42.1666H30.4005C36.75 42.1666 37.6892 39.56 38.4242 35.9566L41.8542 19.1666" stroke="white" stroke-width="1.5" stroke-linecap="round"/>
</svg>
