<svg width="49" height="46" viewBox="0 0 49 46" fill="none" xmlns="http://www.w3.org/2000/svg">
<path d="M44.9167 8.95079V32.085C44.9167 33.925 43.3242 35.6499 41.3642 35.8799L40.6904 35.9567C36.2396 36.5125 29.3796 38.6399 25.4596 40.6716C24.9287 40.9591 24.0509 40.9591 23.4996 40.6716L23.4179 40.6333C19.4979 38.6208 12.6584 36.5125 8.22802 35.9567L7.63585 35.8799C5.67585 35.6499 4.08337 33.925 4.08337 32.085V8.9316C4.08337 6.65077 6.06374 4.92579 8.49332 5.11746C12.7808 5.44329 19.2733 7.47501 22.9075 9.60251L23.4179 9.88994C24.01 10.2349 24.9901 10.2349 25.5822 9.88994L25.9292 9.67913C27.2155 8.93163 28.8488 8.18412 30.625 7.51329V15.3333L34.7084 12.7841L38.7917 15.3333V5.32838C39.343 5.23254 39.8738 5.17497 40.3638 5.13664H40.4863C42.9159 4.94497 44.9167 6.65079 44.9167 8.95079Z" stroke="white" stroke-width="1.5" stroke-linecap="round" stroke-linejoin="round"/>
<path d="M24.5 10.5225V39.2725" stroke="white" stroke-width="1.5" stroke-linecap="round" stroke-linejoin="round"/>
<path d="M38.7917 5.32837V15.3333L34.7083 12.7841L30.625 15.3333V7.51328C33.2996 6.51661 36.2804 5.7117 38.7917 5.32837Z" stroke="white" stroke-width="1.5" stroke-linecap="round" stroke-linejoin="round"/>
</svg>
