<svg width="113" height="111" viewBox="0 0 113 111" fill="none" xmlns="http://www.w3.org/2000/svg">
<path d="M111.75 89.5237C111.75 91.4587 111.307 93.4475 110.365 95.3825C109.423 97.3175 108.204 99.145 106.597 100.865C103.881 103.768 100.889 105.864 97.5083 107.208C94.1833 108.551 90.5813 109.25 86.7021 109.25C81.0496 109.25 75.0092 107.96 68.6362 105.326C62.2633 102.693 55.8904 99.145 49.5729 94.6838C43.2 90.1688 37.1596 85.17 31.3962 79.6337C25.6883 74.0437 20.5346 68.185 15.935 62.0575C11.3908 55.93 7.73333 49.8025 5.07333 43.7288C2.41333 37.6013 1.08333 31.7425 1.08333 26.1525C1.08333 22.4975 1.74833 19.0038 3.07833 15.7788C4.40833 12.5 6.51416 9.49 9.45125 6.8025C12.9979 3.41625 16.8771 1.75 20.9779 1.75C22.5296 1.75 24.0812 2.0725 25.4667 2.7175C26.9075 3.3625 28.1821 4.33 29.1796 5.7275L42.0362 23.3038C43.0337 24.6475 43.7542 25.8838 44.2529 27.0663C44.7517 28.195 45.0287 29.3238 45.0287 30.345C45.0287 31.635 44.6408 32.925 43.865 34.1612C43.1446 35.3975 42.0917 36.6875 40.7617 37.9775L36.55 42.2237C35.9404 42.815 35.6633 43.5138 35.6633 44.3738C35.6633 44.8038 35.7187 45.18 35.8296 45.61C35.9958 46.04 36.1621 46.3625 36.2729 46.685C37.2704 48.4587 38.9883 50.77 41.4267 53.565C43.9204 56.36 46.5804 59.2088 49.4621 62.0575C52.4546 64.9063 55.3362 67.54 58.2733 69.9587C61.155 72.3237 63.5379 73.9362 65.4221 74.9037C65.6992 75.0112 66.0317 75.1725 66.4196 75.3337C66.8629 75.495 67.3062 75.5487 67.805 75.5487C68.7471 75.5487 69.4675 75.2263 70.0771 74.635L74.2887 70.6038C75.6742 69.26 77.0042 68.2387 78.2788 67.5938C79.5533 66.8412 80.8279 66.465 82.2133 66.465C83.2662 66.465 84.3746 66.68 85.5937 67.1638C86.8129 67.6475 88.0875 68.3463 89.4729 69.26L107.816 81.8912C109.257 82.8587 110.254 83.9875 110.864 85.3312C111.418 86.675 111.75 88.0187 111.75 89.5237Z" stroke="white" stroke-width="2" stroke-miterlimit="10"/>
<path d="M92.5208 39.375C92.5208 36.15 89.9162 31.205 86.0371 27.1738C82.4904 23.465 77.78 20.5625 73.125 20.5625" stroke="white" stroke-width="2" stroke-linecap="round" stroke-linejoin="round"/>
<path d="M111.917 39.375C111.917 18.5738 94.5712 1.75 73.125 1.75" stroke="white" stroke-width="2" stroke-linecap="round" stroke-linejoin="round"/>
</svg>
