<svg width="820" height="597" viewBox="0 0 820 597" fill="none" xmlns="http://www.w3.org/2000/svg">
<path d="M24.8807 424.365L125.902 424C136.077 423.963 128.853 437.186 133.837 438.535C139.044 439.944 146.536 438.145 149.239 440.411C153.565 444.037 151.956 456.528 150.139 459.247C147.787 462.766 141.307 460.059 140.225 462.863C139.242 465.411 138.992 472.769 138.603 475.751C138.132 479.36 139.808 479.91 139.192 483.62C135.313 506.968 129.687 552.639 126.827 571.799C126.389 574.73 123.884 571.612 122.683 582.297C121.912 589.161 123.087 595.727 112.913 595.748C89.7994 595.797 60.9458 595.446 37.7233 595.977C35.3426 596.031 33.9814 594.857 31.9162 592.061C29.9936 587.603 30.0975 582.609 29.8138 577.126C29.7084 575.088 26.1821 573.668 25.5941 568.462C22.0895 537.429 17.5808 509.694 13.5648 480.341C13.2754 478.226 15.135 477.241 14.5213 474.439C14.3858 471.194 13.9625 467.721 13.3441 464.567C12.69 461.258 10.1688 461.8 7.31104 461.495C3.88391 460.829 1.92377 459.157 1.49874 456.18C0.0348994 445.927 1.95248 440.824 5.17742 439.37C10.3694 437.029 17.4011 442.011 20.752 436.59C21.0914 432.877 21.1348 424.378 24.8807 424.365Z" stroke="white" stroke-width="2" stroke-linecap="square" stroke-linejoin="bevel"/>
<path d="M18.5237 439.229L135.539 439.095M12.2808 461.683L139.897 461.879M15.8184 478.866L136.099 479.061M29.969 573.955L123.197 573.759" stroke="white" stroke-width="2" stroke-linecap="square" stroke-linejoin="bevel"/>
<path d="M97.2731 524.922C94.6959 537.721 76.7215 547.168 67.4222 544.079C58.441 541.096 53.9732 535.866 56.3126 525.424C59.039 513.254 72.6813 503.985 82.3124 505.014C93.0171 506.156 99.4482 514.119 97.2731 524.922Z" stroke="white" stroke-width="2" stroke-linecap="square" stroke-linejoin="bevel"/>
<path d="M61.3484 538.707C64.7545 539.105 68.3118 538.22 71.0601 536.291C74.4862 533.886 76.4908 530.095 77.8289 526.281C78.2485 525.085 78.6152 523.873 79.0796 522.691C81.1259 517.487 85.1153 512.975 90.1892 510.127" stroke="white" stroke-width="2" stroke-linecap="square" stroke-linejoin="bevel"/>
<path d="M76 452.893C172.137 201.747 361.711 263.748 412.805 278.149C463.9 292.549 477.277 257.616 510.066 213.671C542.855 169.726 624.007 101.678 639.324 148.093C651.577 185.226 763.022 170.736 817.212 158.85" stroke="#383330"/>
<mask id="path-6-outside-1_262_1328" maskUnits="userSpaceOnUse" x="58.0535" y="393.221" width="33.2907" height="28.7316" fill="black">
<rect fill="white" x="58.0535" y="393.221" width="33.2907" height="28.7316"/>
<path d="M74.3274 397.466L79.537 398.621L84.4298 420.499L83.5238 420.298L81.7804 412.485L70.5403 409.994L65.5736 416.319L60.3641 415.164L74.3274 397.466ZM78.8422 399.477L71.1187 409.26L81.566 411.577L78.8422 399.477Z"/>
</mask>
<path d="M74.3274 397.466L79.537 398.621L84.4298 420.499L83.5238 420.298L81.7804 412.485L70.5403 409.994L65.5736 416.319L60.3641 415.164L74.3274 397.466ZM78.8422 399.477L71.1187 409.26L81.566 411.577L78.8422 399.477Z" fill="white"/>
<path d="M74.3274 397.466L74.5439 396.49L73.9311 396.354L73.5424 396.847L74.3274 397.466ZM79.537 398.621L80.5128 398.403L80.3741 397.783L79.7534 397.645L79.537 398.621ZM84.4298 420.499L84.2133 421.475L85.7489 421.816L85.4056 420.281L84.4298 420.499ZM83.5238 420.298L82.5478 420.516L82.6863 421.137L83.3073 421.274L83.5238 420.298ZM81.7804 412.485L82.7564 412.268L82.6178 411.647L81.9968 411.509L81.7804 412.485ZM70.5403 409.994L70.7567 409.017L70.1424 408.881L69.7538 409.376L70.5403 409.994ZM65.5736 416.319L65.3571 417.295L65.9715 417.431L66.3601 416.936L65.5736 416.319ZM60.3641 415.164L59.579 414.544L58.5921 415.795L60.1476 416.14L60.3641 415.164ZM78.8422 399.477L79.8178 399.258L79.3571 397.211L78.0573 398.858L78.8422 399.477ZM71.1187 409.26L70.3338 408.641L69.3462 409.892L70.9022 410.237L71.1187 409.26ZM81.566 411.577L81.3496 412.553L82.8876 412.894L82.5416 411.357L81.566 411.577ZM74.111 398.443L79.3205 399.598L79.7534 397.645L74.5439 396.49L74.111 398.443ZM78.5611 398.839L83.4539 420.717L85.4056 420.281L80.5128 398.403L78.5611 398.839ZM84.6462 419.523L83.7402 419.322L83.3073 421.274L84.2133 421.475L84.6462 419.523ZM84.4997 420.08L82.7564 412.268L80.8044 412.703L82.5478 420.516L84.4997 420.08ZM81.9968 411.509L70.7567 409.017L70.3238 410.97L81.5639 413.462L81.9968 411.509ZM69.7538 409.376L64.7871 415.701L66.3601 416.936L71.3268 410.611L69.7538 409.376ZM65.79 415.342L60.5805 414.187L60.1476 416.14L65.3571 417.295L65.79 415.342ZM61.1491 415.783L75.1125 398.086L73.5424 396.847L59.579 414.544L61.1491 415.783ZM78.0573 398.858L70.3338 408.641L71.9036 409.88L79.6271 400.097L78.0573 398.858ZM70.9022 410.237L81.3496 412.553L81.7825 410.6L71.3351 408.284L70.9022 410.237ZM82.5416 411.357L79.8178 399.258L77.8666 399.697L80.5904 411.796L82.5416 411.357Z" fill="white" mask="url(#path-6-outside-1_262_1328)"/>
<mask id="path-8-outside-2_262_1328" maskUnits="userSpaceOnUse" x="80.2116" y="360.427" width="25.4803" height="27" fill="black">
<rect fill="white" x="80.2116" y="360.427" width="25.4803" height="27"/>
<path d="M85.9542 362.338L96.1185 364.592C98.4967 365.119 100.167 365.756 101.13 366.505C102.112 367.257 102.633 368.076 102.695 368.96C102.775 369.85 102.641 371.077 102.294 372.644L102.005 373.946C101.842 374.683 101.488 375.297 100.943 375.79C100.417 376.287 99.7785 376.621 99.0279 376.791C98.2772 376.962 97.5055 376.959 96.7128 376.783L84.2553 374.021L82.4099 382.345L81.5605 382.157L85.9542 362.338ZM96.8948 375.962C97.8386 376.171 98.735 376.103 99.5841 375.756C100.433 375.41 100.96 374.774 101.165 373.849C101.383 372.868 101.134 372.07 100.419 371.456C99.7074 370.823 98.7384 370.371 97.5115 370.099L85.7052 367.481L84.4373 373.2L96.8948 375.962Z"/>
</mask>
<path d="M85.9542 362.338L96.1185 364.592C98.4967 365.119 100.167 365.756 101.13 366.505C102.112 367.257 102.633 368.076 102.695 368.96C102.775 369.85 102.641 371.077 102.294 372.644L102.005 373.946C101.842 374.683 101.488 375.297 100.943 375.79C100.417 376.287 99.7785 376.621 99.0279 376.791C98.2772 376.962 97.5055 376.959 96.7128 376.783L84.2553 374.021L82.4099 382.345L81.5605 382.157L85.9542 362.338ZM96.8948 375.962C97.8386 376.171 98.735 376.103 99.5841 375.756C100.433 375.41 100.96 374.774 101.165 373.849C101.383 372.868 101.134 372.07 100.419 371.456C99.7074 370.823 98.7384 370.371 97.5115 370.099L85.7052 367.481L84.4373 373.2L96.8948 375.962Z" fill="white"/>
<path d="M85.9542 362.338L86.1707 361.362L85.1944 361.145L84.9779 362.122L85.9542 362.338ZM101.13 366.505L100.517 367.294L100.522 367.298L101.13 366.505ZM102.695 368.96L101.697 369.029L101.698 369.04L101.699 369.05L102.695 368.96ZM100.943 375.79L100.272 375.049L100.264 375.056L100.256 375.063L100.943 375.79ZM99.0279 376.791L98.8067 375.816L98.8067 375.816L99.0279 376.791ZM84.2553 374.021L84.4717 373.045L83.4954 372.829L83.279 373.805L84.2553 374.021ZM82.4099 382.345L82.1934 383.322L83.1697 383.538L83.3862 382.562L82.4099 382.345ZM81.5605 382.157L80.5842 381.941L80.3678 382.917L81.3441 383.133L81.5605 382.157ZM99.5841 375.756L99.9619 376.682L99.5841 375.756ZM100.419 371.456L99.7538 372.203L99.7605 372.209L99.7673 372.215L100.419 371.456ZM85.7052 367.481L85.9216 366.505L84.9453 366.288L84.7289 367.265L85.7052 367.481ZM84.4373 373.2L83.461 372.984L83.2445 373.96L84.2208 374.177L84.4373 373.2ZM85.7378 363.314L95.902 365.568L96.3349 363.615L86.1707 361.362L85.7378 363.314ZM95.902 365.568C98.2518 366.089 99.7378 366.689 100.517 367.294L101.744 365.715C100.597 364.824 98.7416 364.149 96.3349 363.615L95.902 365.568ZM100.522 367.298C101.369 367.948 101.663 368.53 101.697 369.029L103.692 368.891C103.604 367.621 102.855 366.566 101.738 365.711L100.522 367.298ZM101.699 369.05C101.765 369.786 101.657 370.895 101.318 372.428L103.27 372.86C103.625 371.26 103.785 369.913 103.691 368.871L101.699 369.05ZM101.318 372.428L101.029 373.73L102.982 374.163L103.27 372.86L101.318 372.428ZM101.029 373.73C100.909 374.269 100.659 374.699 100.272 375.049L101.614 376.532C102.317 375.896 102.775 375.096 102.982 374.163L101.029 373.73ZM100.256 375.063C99.8685 375.43 99.3941 375.683 98.8067 375.816L99.249 377.767C100.163 377.559 100.965 377.145 101.63 376.517L100.256 375.063ZM98.8067 375.816C98.208 375.952 97.5859 375.952 96.9292 375.807L96.4963 377.759C97.4252 377.965 98.3465 377.971 99.249 377.767L98.8067 375.816ZM96.9292 375.807L84.4717 373.045L84.0388 374.998L96.4963 377.759L96.9292 375.807ZM83.279 373.805L81.4336 382.129L83.3862 382.562L85.2315 374.238L83.279 373.805ZM82.6263 381.369L81.7769 381.181L81.3441 383.133L82.1934 383.322L82.6263 381.369ZM82.5368 382.373L86.9305 362.555L84.9779 362.122L80.5842 381.941L82.5368 382.373ZM96.6784 376.938C97.8093 377.189 98.9139 377.11 99.9619 376.682L99.2063 374.83C98.5561 375.096 97.8678 375.153 97.1113 374.986L96.6784 376.938ZM99.9619 376.682C101.127 376.207 101.868 375.298 102.142 374.066L100.189 373.633C100.052 374.25 99.7399 374.613 99.2063 374.83L99.9619 376.682ZM102.142 374.066C102.281 373.439 102.283 372.813 102.096 372.217C101.909 371.617 101.551 371.11 101.07 370.697L99.7673 372.215C100.001 372.416 100.126 372.615 100.187 372.813C100.25 373.014 100.268 373.278 100.189 373.633L102.142 374.066ZM101.083 370.709C100.21 369.932 99.0699 369.42 97.728 369.122L97.2951 371.075C98.407 371.321 99.2045 371.714 99.7538 372.203L101.083 370.709ZM97.728 369.122L85.9216 366.505L85.4887 368.457L97.2951 371.075L97.728 369.122ZM84.7289 367.265L83.461 372.984L85.4136 373.417L86.6815 367.698L84.7289 367.265ZM84.2208 374.177L96.6784 376.938L97.1113 374.986L84.6537 372.224L84.2208 374.177Z" fill="white" mask="url(#path-8-outside-2_262_1328)"/>
<mask id="path-10-outside-3_262_1328" maskUnits="userSpaceOnUse" x="96.2617" y="327.469" width="30.5782" height="29.0585" fill="black">
<rect fill="white" x="96.2617" y="327.469" width="30.5782" height="29.0585"/>
<path d="M114.412 331.667C116.375 332.102 118.056 332.96 119.455 334.24C120.874 335.525 121.869 337.063 122.443 338.853C123.039 340.629 123.13 342.451 122.716 344.32C122.298 346.207 121.441 347.839 120.145 349.216C118.873 350.577 117.323 351.54 115.495 352.105C113.685 352.675 111.799 352.742 109.836 352.306L108.76 352.068C106.778 351.629 105.078 350.767 103.66 349.482C102.242 348.197 101.244 346.669 100.666 344.897C100.093 343.107 100.016 341.268 100.434 339.38C100.852 337.493 101.698 335.868 102.97 334.506C104.242 333.145 105.792 332.182 107.621 331.617C109.449 331.052 111.354 330.989 113.336 331.428L114.412 331.667ZM111.161 347.402C112.898 347.787 114.554 347.907 116.131 347.761C117.712 347.597 119.027 347.205 120.075 346.586C121.127 345.948 121.762 345.138 121.98 344.157C122.193 343.194 121.956 342.211 121.268 341.207C120.583 340.184 119.557 339.273 118.19 338.475C116.826 337.658 115.276 337.056 113.54 336.672L112.011 336.333C110.275 335.948 108.606 335.835 107.006 335.995C105.43 336.141 104.115 336.533 103.063 337.171C102.014 337.79 101.384 338.581 101.17 339.543C100.953 340.525 101.186 341.527 101.87 342.55C102.558 343.554 103.584 344.465 104.948 345.282C106.334 346.084 107.896 346.678 109.632 347.063L111.161 347.402Z"/>
</mask>
<path d="M114.412 331.667C116.375 332.102 118.056 332.96 119.455 334.24C120.874 335.525 121.869 337.063 122.443 338.853C123.039 340.629 123.13 342.451 122.716 344.32C122.298 346.207 121.441 347.839 120.145 349.216C118.873 350.577 117.323 351.54 115.495 352.105C113.685 352.675 111.799 352.742 109.836 352.306L108.76 352.068C106.778 351.629 105.078 350.767 103.66 349.482C102.242 348.197 101.244 346.669 100.666 344.897C100.093 343.107 100.016 341.268 100.434 339.38C100.852 337.493 101.698 335.868 102.97 334.506C104.242 333.145 105.792 332.182 107.621 331.617C109.449 331.052 111.354 330.989 113.336 331.428L114.412 331.667ZM111.161 347.402C112.898 347.787 114.554 347.907 116.131 347.761C117.712 347.597 119.027 347.205 120.075 346.586C121.127 345.948 121.762 345.138 121.98 344.157C122.193 343.194 121.956 342.211 121.268 341.207C120.583 340.184 119.557 339.273 118.19 338.475C116.826 337.658 115.276 337.056 113.54 336.672L112.011 336.333C110.275 335.948 108.606 335.835 107.006 335.995C105.43 336.141 104.115 336.533 103.063 337.171C102.014 337.79 101.384 338.581 101.17 339.543C100.953 340.525 101.186 341.527 101.87 342.55C102.558 343.554 103.584 344.465 104.948 345.282C106.334 346.084 107.896 346.678 109.632 347.063L111.161 347.402Z" fill="white"/>
<path d="M119.455 334.24L118.78 334.978L118.784 334.981L119.455 334.24ZM122.443 338.853L121.49 339.158L121.495 339.172L122.443 338.853ZM120.145 349.216L119.417 348.53L119.415 348.533L120.145 349.216ZM115.495 352.105L115.199 351.15L115.195 351.152L115.495 352.105ZM103.66 349.482L102.989 350.223L103.66 349.482ZM100.666 344.897L99.714 345.202L99.7156 345.207L100.666 344.897ZM102.97 334.506L102.239 333.824L102.239 333.824L102.97 334.506ZM107.621 331.617L107.916 332.572L107.621 331.617ZM116.131 347.761L116.223 348.757L116.234 348.756L116.131 347.761ZM120.075 346.586L120.584 347.447L120.593 347.441L120.075 346.586ZM121.268 341.207L120.436 341.763L120.443 341.772L121.268 341.207ZM118.19 338.475L117.676 339.332L117.686 339.338L118.19 338.475ZM107.006 335.995L107.098 336.991L107.106 336.99L107.006 335.995ZM103.063 337.171L103.571 338.032L103.581 338.026L103.063 337.171ZM101.87 342.55L101.039 343.106L101.045 343.115L101.87 342.55ZM104.948 345.282L104.434 346.14L104.44 346.144L104.447 346.147L104.948 345.282ZM114.195 332.643C115.998 333.042 117.518 333.823 118.78 334.978L120.13 333.502C118.594 332.096 116.752 331.161 114.628 330.69L114.195 332.643ZM118.784 334.981C120.074 336.15 120.972 337.538 121.49 339.158L123.395 338.548C122.767 336.587 121.673 334.9 120.127 333.499L118.784 334.981ZM121.495 339.172C122.032 340.771 122.116 342.408 121.74 344.103L123.692 344.536C124.145 342.494 124.046 340.487 123.391 338.535L121.495 339.172ZM121.74 344.103C121.359 345.819 120.586 347.288 119.417 348.53L120.874 349.901C122.295 348.39 123.236 346.595 123.692 344.536L121.74 344.103ZM119.415 348.533C118.265 349.764 116.866 350.635 115.199 351.15L115.79 353.061C117.78 352.446 119.482 351.391 120.876 349.898L119.415 348.533ZM115.195 351.152C113.563 351.665 111.855 351.73 110.053 351.33L109.62 353.283C111.743 353.754 113.808 353.684 115.795 353.059L115.195 351.152ZM110.053 351.33L108.977 351.092L108.544 353.044L109.62 353.283L110.053 351.33ZM108.977 351.092C107.154 350.687 105.613 349.902 104.331 348.741L102.989 350.223C104.543 351.631 106.403 352.57 108.544 353.044L108.977 351.092ZM104.331 348.741C103.039 347.57 102.139 346.189 101.617 344.587L99.7156 345.207C100.349 347.149 101.445 348.825 102.989 350.223L104.331 348.741ZM101.619 344.592C101.101 342.975 101.029 341.316 101.41 339.597L99.4577 339.164C99.0021 341.219 99.0851 343.238 99.714 345.202L101.619 344.592ZM101.41 339.597C101.792 337.877 102.555 336.415 103.701 335.189L102.239 333.824C100.84 335.321 99.9133 337.108 99.4577 339.164L101.41 339.597ZM103.701 335.189C104.851 333.958 106.249 333.087 107.916 332.572L107.325 330.661C105.335 331.276 103.634 332.331 102.239 333.824L103.701 335.189ZM107.916 332.572C109.568 332.061 111.296 332 113.12 332.404L113.552 330.452C111.412 329.977 109.33 330.042 107.325 330.661L107.916 332.572ZM113.12 332.404L114.195 332.643L114.628 330.69L113.552 330.452L113.12 332.404ZM110.945 348.378C112.77 348.783 114.531 348.913 116.223 348.757L116.039 346.765C114.577 346.9 113.025 346.791 111.377 346.426L110.945 348.378ZM116.234 348.756C117.917 348.581 119.38 348.158 120.584 347.447L119.566 345.725C118.674 346.252 117.508 346.613 116.028 346.767L116.234 348.756ZM120.593 347.441C121.823 346.696 122.667 345.679 122.956 344.373L121.004 343.94C120.858 344.597 120.432 345.2 119.557 345.731L120.593 347.441ZM122.956 344.373C123.243 343.079 122.898 341.816 122.092 340.641L120.443 341.772C121.014 342.605 121.143 343.309 121.004 343.94L122.956 344.373ZM122.099 340.651C121.31 339.471 120.156 338.465 118.694 337.611L117.686 339.338C118.959 340.081 119.857 340.896 120.436 341.762L122.099 340.651ZM118.704 337.617C117.238 336.738 115.585 336.101 113.756 335.695L113.323 337.648C114.967 338.012 116.415 338.577 117.676 339.332L118.704 337.617ZM113.756 335.695L112.227 335.356L111.795 337.309L113.323 337.648L113.756 335.695ZM112.227 335.356C110.398 334.951 108.623 334.829 106.907 335L107.106 336.99C108.59 336.842 110.151 336.944 111.795 337.309L112.227 335.356ZM106.915 335C105.228 335.155 103.758 335.58 102.544 336.315L103.581 338.026C104.472 337.486 105.631 337.127 107.098 336.991L106.915 335ZM102.554 336.31C101.327 337.034 100.481 338.033 100.194 339.327L102.146 339.76C102.286 339.129 102.701 338.545 103.571 338.032L102.554 336.31ZM100.194 339.327C99.9043 340.633 100.239 341.911 101.039 343.106L102.701 341.994C102.132 341.144 102.001 340.417 102.146 339.76L100.194 339.327ZM101.045 343.115C101.836 344.269 102.983 345.27 104.434 346.14L105.462 344.424C104.185 343.659 103.281 342.84 102.695 341.985L101.045 343.115ZM104.447 346.147C105.931 347.006 107.59 347.635 109.416 348.039L109.849 346.087C108.201 345.722 106.737 345.162 105.449 344.416L104.447 346.147ZM109.416 348.039L110.945 348.378L111.377 346.426L109.849 346.087L109.416 348.039Z" fill="white" mask="url(#path-10-outside-3_262_1328)"/>
<mask id="path-12-outside-4_262_1328" maskUnits="userSpaceOnUse" x="117.986" y="290.214" width="40.1248" height="30.2466" fill="black">
<rect fill="white" x="117.986" y="290.214" width="40.1248" height="30.2466"/>
<path d="M139.955 298.514L125.676 313.349L120.155 312.125L136.695 294.999L141.366 296.035L137.581 313.107L151.842 298.357L156.514 299.393L152.12 319.212L151.299 319.03L155.103 301.872L140.823 316.707L136.152 315.672L139.955 298.514Z"/>
</mask>
<path d="M139.955 298.514L125.676 313.349L120.155 312.125L136.695 294.999L141.366 296.035L137.581 313.107L151.842 298.357L156.514 299.393L152.12 319.212L151.299 319.03L155.103 301.872L140.823 316.707L136.152 315.672L139.955 298.514Z" fill="white"/>
<path d="M139.955 298.514L140.932 298.731L141.701 295.258L139.235 297.821L139.955 298.514ZM125.676 313.349L125.459 314.326L126.007 314.447L126.396 314.043L125.676 313.349ZM120.155 312.125L119.436 311.431L118.195 312.715L119.939 313.102L120.155 312.125ZM136.695 294.999L136.911 294.023L136.364 293.902L135.975 294.305L136.695 294.999ZM141.366 296.035L142.343 296.251L142.559 295.275L141.583 295.059L141.366 296.035ZM137.581 313.107L136.605 312.891L135.839 316.349L138.3 313.803L137.581 313.107ZM151.842 298.357L152.058 297.381L151.512 297.26L151.123 297.662L151.842 298.357ZM156.514 299.393L157.49 299.609L157.706 298.633L156.73 298.417L156.514 299.393ZM152.12 319.212L151.903 320.188L152.88 320.405L153.096 319.428L152.12 319.212ZM151.299 319.03L150.322 318.813L150.106 319.79L151.082 320.006L151.299 319.03ZM155.103 301.872L156.079 302.089L156.849 298.616L154.382 301.179L155.103 301.872ZM140.823 316.707L140.607 317.684L141.154 317.805L141.544 317.401L140.823 316.707ZM136.152 315.672L135.175 315.455L134.959 316.432L135.935 316.648L136.152 315.672ZM139.235 297.821L124.955 312.656L126.396 314.043L140.676 299.208L139.235 297.821ZM125.892 312.373L120.371 311.149L119.939 313.102L125.459 314.326L125.892 312.373ZM120.874 312.82L137.414 295.694L135.975 294.305L119.436 311.431L120.874 312.82ZM136.478 295.976L141.15 297.011L141.583 295.059L136.911 294.023L136.478 295.976ZM140.39 295.819L136.605 312.891L138.558 313.324L142.343 296.251L140.39 295.819ZM138.3 313.803L152.561 299.052L151.123 297.662L136.863 312.412L138.3 313.803ZM151.626 299.334L156.297 300.369L156.73 298.417L152.058 297.381L151.626 299.334ZM155.537 299.177L151.144 318.995L153.096 319.428L157.49 299.609L155.537 299.177ZM152.336 318.236L151.515 318.054L151.082 320.006L151.903 320.188L152.336 318.236ZM152.275 319.246L156.079 302.089L154.126 301.656L150.322 318.813L152.275 319.246ZM154.382 301.179L140.103 316.014L141.544 317.401L155.823 302.566L154.382 301.179ZM141.04 315.731L136.368 314.695L135.935 316.648L140.607 317.684L141.04 315.731ZM137.128 315.888L140.932 298.731L138.979 298.298L135.175 315.455L137.128 315.888Z" fill="white" mask="url(#path-12-outside-4_262_1328)"/>
<mask id="path-14-outside-5_262_1328" maskUnits="userSpaceOnUse" x="156.875" y="263.628" width="33.2907" height="28.7316" fill="black">
<rect fill="white" x="156.875" y="263.628" width="33.2907" height="28.7316"/>
<path d="M173.149 267.874L178.359 269.028L183.252 290.906L182.346 290.705L180.602 282.893L169.362 280.401L164.395 286.726L159.186 285.571L173.149 267.874ZM177.664 269.884L169.941 279.668L180.388 281.984L177.664 269.884Z"/>
</mask>
<path d="M173.149 267.874L178.359 269.028L183.252 290.906L182.346 290.705L180.602 282.893L169.362 280.401L164.395 286.726L159.186 285.571L173.149 267.874ZM177.664 269.884L169.941 279.668L180.388 281.984L177.664 269.884Z" fill="white"/>
<path d="M173.149 267.874L173.366 266.897L172.753 266.761L172.364 267.254L173.149 267.874ZM178.359 269.028L179.335 268.81L179.196 268.19L178.575 268.052L178.359 269.028ZM183.252 290.906L183.035 291.882L184.571 292.223L184.228 290.688L183.252 290.906ZM182.346 290.705L181.37 290.923L181.508 291.544L182.129 291.681L182.346 290.705ZM180.602 282.893L181.578 282.675L181.44 282.054L180.819 281.916L180.602 282.893ZM169.362 280.401L169.579 279.425L168.964 279.288L168.576 279.783L169.362 280.401ZM164.395 286.726L164.179 287.702L164.793 287.838L165.182 287.343L164.395 286.726ZM159.186 285.571L158.401 284.951L157.414 286.202L158.969 286.547L159.186 285.571ZM177.664 269.884L178.64 269.665L178.179 267.618L176.879 269.265L177.664 269.884ZM169.941 279.668L169.156 279.048L168.168 280.299L169.724 280.644L169.941 279.668ZM180.388 281.984L180.171 282.96L181.709 283.301L181.363 281.764L180.388 281.984ZM172.933 268.85L178.142 270.005L178.575 268.052L173.366 266.897L172.933 268.85ZM177.383 269.247L182.276 291.124L184.228 290.688L179.335 268.81L177.383 269.247ZM183.468 289.93L182.562 289.729L182.129 291.681L183.035 291.882L183.468 289.93ZM183.322 290.487L181.578 282.675L179.626 283.11L181.37 290.923L183.322 290.487ZM180.819 281.916L169.579 279.425L169.146 281.377L180.386 283.869L180.819 281.916ZM168.576 279.783L163.609 286.108L165.182 287.343L170.149 281.018L168.576 279.783ZM164.612 285.749L159.402 284.595L158.969 286.547L164.179 287.702L164.612 285.749ZM159.971 286.19L173.934 268.493L172.364 267.254L158.401 284.951L159.971 286.19ZM176.879 269.265L169.156 279.048L170.725 280.287L178.449 270.504L176.879 269.265ZM169.724 280.644L180.171 282.96L180.604 281.007L170.157 278.691L169.724 280.644ZM181.363 281.764L178.64 269.665L176.689 270.104L179.412 282.203L181.363 281.764Z" fill="white" mask="url(#path-14-outside-5_262_1328)"/>
<mask id="path-16-outside-6_262_1328" maskUnits="userSpaceOnUse" x="192.031" y="246.169" width="27.4329" height="27.4329" fill="black">
<rect fill="white" x="192.031" y="246.169" width="27.4329" height="27.4329"/>
<path d="M202.963 270.024L206.259 255.159L196.802 253.063L197.901 248.108L217.663 252.49L216.564 257.444L207.08 255.342L203.784 270.206L202.963 270.024Z"/>
</mask>
<path d="M202.963 270.024L206.259 255.159L196.802 253.063L197.901 248.108L217.663 252.49L216.564 257.444L207.08 255.342L203.784 270.206L202.963 270.024Z" fill="white"/>
<path d="M202.963 270.024L201.987 269.807L201.771 270.783L202.747 271L202.963 270.024ZM206.259 255.159L207.235 255.376L207.451 254.4L206.475 254.183L206.259 255.159ZM196.802 253.063L195.826 252.847L195.61 253.823L196.586 254.039L196.802 253.063ZM197.901 248.108L198.117 247.132L197.141 246.916L196.924 247.892L197.901 248.108ZM217.663 252.49L218.639 252.706L218.856 251.73L217.879 251.513L217.663 252.49ZM216.564 257.444L216.348 258.421L217.324 258.637L217.541 257.661L216.564 257.444ZM207.08 255.342L207.296 254.365L206.32 254.149L206.103 255.125L207.08 255.342ZM203.784 270.206L203.568 271.182L204.544 271.398L204.761 270.422L203.784 270.206ZM203.94 270.24L207.235 255.376L205.282 254.943L201.987 269.807L203.94 270.24ZM206.475 254.183L197.019 252.087L196.586 254.039L206.042 256.136L206.475 254.183ZM197.779 253.279L198.877 248.325L196.924 247.892L195.826 252.847L197.779 253.279ZM197.684 249.085L217.446 253.466L217.879 251.513L198.117 247.132L197.684 249.085ZM216.687 252.273L215.588 257.228L217.541 257.661L218.639 252.706L216.687 252.273ZM216.781 256.468L207.296 254.365L206.863 256.318L216.348 258.421L216.781 256.468ZM206.103 255.125L202.808 269.989L204.761 270.422L208.056 255.558L206.103 255.125ZM204.001 269.229L203.18 269.047L202.747 271L203.568 271.182L204.001 269.229Z" fill="white" mask="url(#path-16-outside-6_262_1328)"/>
<mask id="path-18-outside-7_262_1328" maskUnits="userSpaceOnUse" x="246.109" y="228.56" width="30.4677" height="32.7473" fill="black">
<rect fill="white" x="246.109" y="228.56" width="30.4677" height="32.7473"/>
<path d="M269.894 259.479L269.073 259.297L270.014 255.05L249.488 250.5L248.546 254.747L247.725 254.565L249.765 245.363L252.342 245.934L259.431 231.911L272.653 234.842L269.358 249.707L271.934 250.278L269.894 259.479ZM268.536 249.525L270.733 239.615L257.908 236.772L253.163 246.116L268.536 249.525Z"/>
</mask>
<path d="M269.894 259.479L269.073 259.297L270.014 255.05L249.488 250.5L248.546 254.747L247.725 254.565L249.765 245.363L252.342 245.934L259.431 231.911L272.653 234.842L269.358 249.707L271.934 250.278L269.894 259.479ZM268.536 249.525L270.733 239.615L257.908 236.772L253.163 246.116L268.536 249.525Z" fill="white"/>
<path d="M269.894 259.479L269.678 260.456L270.654 260.672L270.87 259.696L269.894 259.479ZM269.073 259.297L268.097 259.081L267.88 260.057L268.857 260.274L269.073 259.297ZM270.014 255.05L270.991 255.267L271.207 254.291L270.231 254.074L270.014 255.05ZM249.488 250.5L249.704 249.524L248.728 249.307L248.512 250.283L249.488 250.5ZM248.546 254.747L248.33 255.723L249.306 255.939L249.523 254.963L248.546 254.747ZM247.725 254.565L246.749 254.348L246.533 255.325L247.509 255.541L247.725 254.565ZM249.765 245.363L249.982 244.387L249.005 244.17L248.789 245.147L249.765 245.363ZM252.342 245.934L252.125 246.911L252.884 247.079L253.234 246.385L252.342 245.934ZM259.431 231.911L259.647 230.935L258.889 230.767L258.538 231.46L259.431 231.911ZM272.653 234.842L273.629 235.059L273.846 234.083L272.869 233.866L272.653 234.842ZM269.358 249.707L268.381 249.49L268.165 250.466L269.141 250.683L269.358 249.707ZM271.934 250.278L272.91 250.494L273.127 249.518L272.15 249.301L271.934 250.278ZM268.536 249.525L268.32 250.501L269.296 250.717L269.513 249.741L268.536 249.525ZM270.733 239.615L271.71 239.832L271.926 238.855L270.95 238.639L270.733 239.615ZM257.908 236.772L258.124 235.795L257.367 235.628L257.016 236.319L257.908 236.772ZM253.163 246.116L252.271 245.664L251.687 246.813L252.946 247.093L253.163 246.116ZM270.11 258.503L269.289 258.321L268.857 260.274L269.678 260.456L270.11 258.503ZM270.049 259.514L270.991 255.267L269.038 254.834L268.097 259.081L270.049 259.514ZM270.231 254.074L249.704 249.524L249.271 251.476L269.798 256.027L270.231 254.074ZM248.512 250.283L247.57 254.53L249.523 254.963L250.464 250.716L248.512 250.283ZM248.763 253.77L247.942 253.588L247.509 255.541L248.33 255.723L248.763 253.77ZM248.702 254.781L250.742 245.58L248.789 245.147L246.749 254.348L248.702 254.781ZM249.549 246.339L252.125 246.911L252.558 244.958L249.982 244.387L249.549 246.339ZM253.234 246.385L260.323 232.362L258.538 231.46L251.449 245.483L253.234 246.385ZM259.214 232.888L272.436 235.819L272.869 233.866L259.647 230.935L259.214 232.888ZM271.677 234.626L268.381 249.49L270.334 249.923L273.629 235.059L271.677 234.626ZM269.141 250.683L271.718 251.254L272.15 249.301L269.574 248.73L269.141 250.683ZM270.958 250.061L268.918 259.263L270.87 259.696L272.91 250.494L270.958 250.061ZM269.513 249.741L271.71 239.832L269.757 239.399L267.56 249.308L269.513 249.741ZM270.95 238.639L258.124 235.795L257.691 237.748L270.517 240.591L270.95 238.639ZM257.016 236.319L252.271 245.664L254.054 246.569L258.799 237.225L257.016 236.319ZM252.946 247.093L268.32 250.501L268.753 248.548L253.379 245.14L252.946 247.093Z" fill="white" mask="url(#path-18-outside-7_262_1328)"/>
<mask id="path-20-outside-8_262_1328" maskUnits="userSpaceOnUse" x="284.457" y="225.471" width="30.5782" height="29.0585" fill="black">
<rect fill="white" x="284.457" y="225.471" width="30.5782" height="29.0585"/>
<path d="M302.607 229.669C304.57 230.104 306.251 230.962 307.65 232.242C309.068 233.527 310.064 235.065 310.638 236.855C311.234 238.631 311.325 240.453 310.911 242.322C310.492 244.209 309.636 245.841 308.34 247.218C307.068 248.579 305.518 249.542 303.69 250.107C301.88 250.677 299.994 250.744 298.031 250.308L296.955 250.07C294.973 249.631 293.273 248.768 291.855 247.484C290.437 246.199 289.439 244.671 288.861 242.899C288.288 241.109 288.21 239.27 288.629 237.382C289.047 235.495 289.893 233.87 291.165 232.508C292.437 231.147 293.987 230.183 295.816 229.618C297.644 229.053 299.549 228.991 301.531 229.43L302.607 229.669ZM299.356 245.404C301.092 245.789 302.749 245.909 304.326 245.763C305.907 245.599 307.222 245.207 308.27 244.588C309.322 243.95 309.957 243.14 310.175 242.159C310.388 241.196 310.151 240.213 309.462 239.209C308.778 238.186 307.752 237.275 306.385 236.477C305.021 235.659 303.471 235.058 301.735 234.673L300.206 234.335C298.469 233.95 296.801 233.837 295.201 233.997C293.624 234.143 292.31 234.535 291.257 235.173C290.209 235.792 289.578 236.583 289.365 237.545C289.147 238.527 289.381 239.529 290.065 240.552C290.753 241.556 291.779 242.467 293.142 243.284C294.529 244.086 296.09 244.68 297.827 245.065L299.356 245.404Z"/>
</mask>
<path d="M302.607 229.669C304.57 230.104 306.251 230.962 307.65 232.242C309.068 233.527 310.064 235.065 310.638 236.855C311.234 238.631 311.325 240.453 310.911 242.322C310.492 244.209 309.636 245.841 308.34 247.218C307.068 248.579 305.518 249.542 303.69 250.107C301.88 250.677 299.994 250.744 298.031 250.308L296.955 250.07C294.973 249.631 293.273 248.768 291.855 247.484C290.437 246.199 289.439 244.671 288.861 242.899C288.288 241.109 288.21 239.27 288.629 237.382C289.047 235.495 289.893 233.87 291.165 232.508C292.437 231.147 293.987 230.183 295.816 229.618C297.644 229.053 299.549 228.991 301.531 229.43L302.607 229.669ZM299.356 245.404C301.092 245.789 302.749 245.909 304.326 245.763C305.907 245.599 307.222 245.207 308.27 244.588C309.322 243.95 309.957 243.14 310.175 242.159C310.388 241.196 310.151 240.213 309.462 239.209C308.778 238.186 307.752 237.275 306.385 236.477C305.021 235.659 303.471 235.058 301.735 234.673L300.206 234.335C298.469 233.95 296.801 233.837 295.201 233.997C293.624 234.143 292.31 234.535 291.257 235.173C290.209 235.792 289.578 236.583 289.365 237.545C289.147 238.527 289.381 239.529 290.065 240.552C290.753 241.556 291.779 242.467 293.142 243.284C294.529 244.086 296.09 244.68 297.827 245.065L299.356 245.404Z" fill="white"/>
<path d="M307.65 232.242L306.975 232.98L306.979 232.983L307.65 232.242ZM310.638 236.855L309.685 237.16L309.69 237.173L310.638 236.855ZM308.34 247.218L307.612 246.532L307.61 246.535L308.34 247.218ZM303.69 250.107L303.394 249.152L303.389 249.153L303.69 250.107ZM291.855 247.484L291.183 248.225L291.855 247.484ZM288.861 242.899L287.909 243.204L287.91 243.209L288.861 242.899ZM291.165 232.508L290.434 231.826L290.434 231.826L291.165 232.508ZM295.816 229.618L296.111 230.574L295.816 229.618ZM304.326 245.763L304.418 246.759L304.429 246.758L304.326 245.763ZM308.27 244.588L308.778 245.449L308.788 245.443L308.27 244.588ZM309.462 239.209L308.631 239.764L308.638 239.774L309.462 239.209ZM306.385 236.477L305.871 237.334L305.881 237.34L306.385 236.477ZM295.201 233.997L295.293 234.993L295.301 234.992L295.201 233.997ZM291.257 235.173L291.766 236.034L291.776 236.028L291.257 235.173ZM290.065 240.552L289.233 241.108L289.24 241.117L290.065 240.552ZM293.142 243.284L292.628 244.142L292.635 244.146L292.642 244.149L293.142 243.284ZM302.39 230.645C304.193 231.044 305.713 231.825 306.975 232.98L308.325 231.504C306.789 230.098 304.947 229.163 302.823 228.692L302.39 230.645ZM306.979 232.983C308.269 234.152 309.166 235.54 309.685 237.16L311.59 236.55C310.962 234.589 309.868 232.902 308.322 231.501L306.979 232.983ZM309.69 237.173C310.227 238.773 310.31 240.41 309.935 242.105L311.887 242.538C312.34 240.496 312.241 238.489 311.586 236.537L309.69 237.173ZM309.935 242.105C309.554 243.821 308.781 245.29 307.612 246.532L309.068 247.903C310.49 246.392 311.431 244.597 311.887 242.538L309.935 242.105ZM307.61 246.535C306.46 247.766 305.061 248.637 303.394 249.152L303.985 251.063C305.975 250.448 307.677 249.393 309.071 247.9L307.61 246.535ZM303.389 249.153C301.757 249.667 300.05 249.732 298.247 249.332L297.814 251.285C299.938 251.755 302.003 251.686 303.99 251.061L303.389 249.153ZM298.247 249.332L297.171 249.094L296.739 251.046L297.814 251.285L298.247 249.332ZM297.171 249.094C295.348 248.689 293.808 247.904 292.526 246.743L291.183 248.225C292.738 249.633 294.598 250.572 296.739 251.046L297.171 249.094ZM292.526 246.743C291.233 245.572 290.334 244.191 289.812 242.589L287.91 243.209C288.543 245.151 289.64 246.826 291.183 248.225L292.526 246.743ZM289.814 242.594C289.296 240.977 289.224 239.318 289.605 237.598L287.653 237.166C287.197 239.221 287.28 241.24 287.909 243.204L289.814 242.594ZM289.605 237.598C289.986 235.879 290.75 234.417 291.895 233.191L290.434 231.826C289.035 233.323 288.108 235.11 287.653 237.166L289.605 237.598ZM291.895 233.191C293.045 231.96 294.444 231.089 296.111 230.574L295.52 228.663C293.53 229.278 291.828 230.333 290.434 231.826L291.895 233.191ZM296.111 230.574C297.763 230.063 299.491 230.002 301.314 230.406L301.747 228.454C299.607 227.979 297.525 228.044 295.52 228.663L296.111 230.574ZM301.314 230.406L302.39 230.645L302.823 228.692L301.747 228.454L301.314 230.406ZM299.139 246.38C300.965 246.785 302.726 246.915 304.418 246.759L304.234 244.767C302.772 244.902 301.22 244.793 299.572 244.428L299.139 246.38ZM304.429 246.758C306.112 246.583 307.575 246.16 308.778 245.449L307.761 243.727C306.869 244.254 305.702 244.615 304.222 244.769L304.429 246.758ZM308.788 245.443C310.018 244.697 310.861 243.681 311.151 242.375L309.198 241.942C309.053 242.599 308.626 243.202 307.751 243.733L308.788 245.443ZM311.151 242.375C311.438 241.081 311.093 239.818 310.287 238.643L308.638 239.774C309.209 240.607 309.338 241.311 309.198 241.942L311.151 242.375ZM310.294 238.653C309.505 237.473 308.351 236.467 306.889 235.613L305.881 237.34C307.154 238.083 308.052 238.898 308.631 239.764L310.294 238.653ZM306.899 235.619C305.433 234.74 303.78 234.103 301.951 233.697L301.518 235.65C303.162 236.014 304.61 236.579 305.871 237.334L306.899 235.619ZM301.951 233.697L300.422 233.358L299.989 235.311L301.518 235.65L301.951 233.697ZM300.422 233.358C298.593 232.953 296.818 232.83 295.102 233.002L295.301 234.992C296.784 234.844 298.346 234.946 299.989 235.311L300.422 233.358ZM295.109 233.002C293.423 233.157 291.953 233.582 290.739 234.317L291.776 236.028C292.667 235.488 293.825 235.129 295.293 234.993L295.109 233.002ZM290.749 234.312C289.522 235.036 288.676 236.035 288.389 237.329L290.341 237.762C290.481 237.131 290.896 236.547 291.766 236.034L290.749 234.312ZM288.389 237.329C288.099 238.635 288.434 239.912 289.234 241.108L290.896 239.996C290.327 239.145 290.196 238.419 290.341 237.762L288.389 237.329ZM289.24 241.117C290.03 242.271 291.178 243.272 292.628 244.142L293.656 242.426C292.38 241.661 291.476 240.842 290.89 239.987L289.24 241.117ZM292.642 244.149C294.126 245.008 295.785 245.637 297.611 246.041L298.043 244.089C296.396 243.723 294.932 243.164 293.643 242.418L292.642 244.149ZM297.611 246.041L299.139 246.38L299.572 244.428L298.043 244.089L297.611 246.041Z" fill="white" mask="url(#path-20-outside-8_262_1328)"/>
<mask id="path-22-outside-9_262_1328" maskUnits="userSpaceOnUse" x="325.299" y="228.843" width="25.4803" height="27" fill="black">
<rect fill="white" x="325.299" y="228.843" width="25.4803" height="27"/>
<path d="M342.503 242.028C343.277 242.2 343.968 242.521 344.576 242.993C345.185 243.464 345.632 244.039 345.917 244.716C346.203 245.393 346.262 246.109 346.094 246.864L345.806 248.166C345.475 249.658 345.063 250.804 344.568 251.605C344.097 252.392 343.257 252.919 342.049 253.185C340.842 253.452 339.096 253.333 336.812 252.826L326.648 250.573L331.041 230.754L347.519 234.407L346.421 239.362L330.764 235.891L330.017 239.26L342.503 242.028ZM345.33 246.427C345.46 245.842 345.382 245.3 345.096 244.801C344.83 244.306 344.436 243.892 343.916 243.559C343.419 243.211 342.887 242.975 342.321 242.849L329.835 240.081L328.567 245.8L340.402 248.424C341.553 248.679 342.591 248.731 343.516 248.58C344.445 248.409 345.049 247.692 345.33 246.427Z"/>
</mask>
<path d="M342.503 242.028C343.277 242.2 343.968 242.521 344.576 242.993C345.185 243.464 345.632 244.039 345.917 244.716C346.203 245.393 346.262 246.109 346.094 246.864L345.806 248.166C345.475 249.658 345.063 250.804 344.568 251.605C344.097 252.392 343.257 252.919 342.049 253.185C340.842 253.452 339.096 253.333 336.812 252.826L326.648 250.573L331.041 230.754L347.519 234.407L346.421 239.362L330.764 235.891L330.017 239.26L342.503 242.028ZM345.33 246.427C345.46 245.842 345.382 245.3 345.096 244.801C344.83 244.306 344.436 243.892 343.916 243.559C343.419 243.211 342.887 242.975 342.321 242.849L329.835 240.081L328.567 245.8L340.402 248.424C341.553 248.679 342.591 248.731 343.516 248.58C344.445 248.409 345.049 247.692 345.33 246.427Z" fill="white"/>
<path d="M344.576 242.993L345.189 242.202L344.576 242.993ZM345.917 244.716L346.839 244.327L346.839 244.327L345.917 244.716ZM344.568 251.605L343.717 251.08L343.71 251.091L344.568 251.605ZM342.049 253.185L341.834 252.209L341.834 252.209L342.049 253.185ZM326.648 250.573L325.671 250.357L325.455 251.333L326.431 251.549L326.648 250.573ZM331.041 230.754L331.258 229.778L330.282 229.561L330.065 230.538L331.041 230.754ZM347.519 234.407L348.496 234.624L348.712 233.647L347.736 233.431L347.519 234.407ZM346.421 239.362L346.204 240.338L347.181 240.555L347.397 239.578L346.421 239.362ZM330.764 235.891L330.981 234.915L330.004 234.698L329.788 235.674L330.764 235.891ZM330.017 239.26L329.041 239.044L328.824 240.02L329.801 240.236L330.017 239.26ZM345.096 244.801L344.216 245.275L344.222 245.287L344.228 245.298L345.096 244.801ZM343.916 243.559L343.343 244.379L343.36 244.39L343.377 244.401L343.916 243.559ZM329.835 240.081L330.052 239.105L329.075 238.888L328.859 239.865L329.835 240.081ZM328.567 245.8L327.591 245.584L327.374 246.56L328.351 246.777L328.567 245.8ZM343.516 248.58L343.678 249.567L343.687 249.565L343.696 249.563L343.516 248.58ZM342.287 243.004C342.921 243.145 343.476 243.405 343.964 243.783L345.189 242.202C344.46 241.638 343.633 241.254 342.719 241.052L342.287 243.004ZM343.964 243.783C344.443 244.155 344.78 244.593 344.996 245.104L346.839 244.327C346.483 243.484 345.926 242.774 345.189 242.202L343.964 243.783ZM344.996 245.104C345.196 245.58 345.243 246.084 345.118 246.648L347.071 247.081C347.28 246.134 347.209 245.206 346.839 244.327L344.996 245.104ZM345.118 246.648L344.829 247.95L346.782 248.383L347.071 247.081L345.118 246.648ZM344.829 247.95C344.51 249.391 344.128 250.414 343.717 251.08L345.419 252.13C345.997 251.193 346.44 249.924 346.782 248.383L344.829 247.95ZM343.71 251.091C343.424 251.568 342.87 251.98 341.834 252.209L342.265 254.162C343.644 253.857 344.769 253.215 345.426 252.119L343.71 251.091ZM341.834 252.209C340.845 252.427 339.275 252.348 337.028 251.85L336.595 253.803C338.917 254.317 340.838 254.477 342.265 254.162L341.834 252.209ZM337.028 251.85L326.864 249.597L326.431 251.549L336.595 253.803L337.028 251.85ZM327.624 250.789L332.018 230.971L330.065 230.538L325.671 250.357L327.624 250.789ZM330.825 231.73L347.303 235.384L347.736 233.431L331.258 229.778L330.825 231.73ZM346.543 234.191L345.445 239.145L347.397 239.578L348.496 234.624L346.543 234.191ZM346.637 238.386L330.981 234.915L330.548 236.867L346.204 240.338L346.637 238.386ZM329.788 235.674L329.041 239.044L330.993 239.477L331.74 236.107L329.788 235.674ZM329.801 240.236L342.287 243.004L342.719 241.052L330.234 238.284L329.801 240.236ZM346.306 246.644C346.487 245.827 346.379 245.029 345.964 244.305L344.228 245.298C344.385 245.571 344.432 245.857 344.354 246.211L346.306 246.644ZM345.977 244.327C345.622 243.668 345.104 243.133 344.455 242.717L343.377 244.401C343.768 244.652 344.038 244.945 344.216 245.275L345.977 244.327ZM344.489 242.74C343.89 242.32 343.238 242.028 342.537 241.873L342.105 243.825C342.537 243.921 342.948 244.102 343.343 244.379L344.489 242.74ZM342.537 241.873L330.052 239.105L329.619 241.057L342.105 243.825L342.537 241.873ZM328.859 239.865L327.591 245.584L329.543 246.017L330.811 240.298L328.859 239.865ZM328.351 246.777L340.185 249.4L340.618 247.448L328.784 244.824L328.351 246.777ZM340.185 249.4C341.43 249.676 342.6 249.743 343.678 249.567L343.354 247.593C342.583 247.719 341.676 247.682 340.618 247.448L340.185 249.4ZM343.696 249.563C345.171 249.293 345.977 248.127 346.306 246.644L344.354 246.211C344.122 247.257 343.719 247.526 343.336 247.596L343.696 249.563Z" fill="white" mask="url(#path-22-outside-9_262_1328)"/>
<mask id="path-24-outside-10_262_1328" maskUnits="userSpaceOnUse" x="359.224" y="235.17" width="25.4803" height="27" fill="black">
<rect fill="white" x="359.224" y="235.17" width="25.4803" height="27"/>
<path d="M364.967 237.081L375.131 239.334C377.509 239.862 379.18 240.499 380.143 241.248C381.125 242 381.646 242.818 381.707 243.703C381.788 244.592 381.654 245.82 381.307 247.387L381.018 248.689C380.855 249.425 380.501 250.04 379.956 250.533C379.43 251.03 378.791 251.364 378.041 251.534C377.29 251.705 376.518 251.702 375.725 251.526L363.268 248.764L361.423 257.088L360.573 256.9L364.967 237.081ZM375.907 250.705C376.851 250.914 377.748 250.846 378.597 250.499C379.446 250.153 379.973 249.517 380.178 248.592C380.396 247.611 380.147 246.813 379.431 246.199C378.72 245.566 377.751 245.113 376.524 244.841L364.718 242.224L363.45 247.943L375.907 250.705Z"/>
</mask>
<path d="M364.967 237.081L375.131 239.334C377.509 239.862 379.18 240.499 380.143 241.248C381.125 242 381.646 242.818 381.707 243.703C381.788 244.592 381.654 245.82 381.307 247.387L381.018 248.689C380.855 249.425 380.501 250.04 379.956 250.533C379.43 251.03 378.791 251.364 378.041 251.534C377.29 251.705 376.518 251.702 375.725 251.526L363.268 248.764L361.423 257.088L360.573 256.9L364.967 237.081ZM375.907 250.705C376.851 250.914 377.748 250.846 378.597 250.499C379.446 250.153 379.973 249.517 380.178 248.592C380.396 247.611 380.147 246.813 379.431 246.199C378.72 245.566 377.751 245.113 376.524 244.841L364.718 242.224L363.45 247.943L375.907 250.705Z" fill="white"/>
<path d="M364.967 237.081L365.183 236.105L364.207 235.888L363.991 236.865L364.967 237.081ZM380.143 241.248L379.529 242.037L379.535 242.041L380.143 241.248ZM381.707 243.703L380.71 243.772L380.711 243.783L380.711 243.793L381.707 243.703ZM379.956 250.533L379.285 249.792L379.277 249.799L379.269 249.806L379.956 250.533ZM378.041 251.534L377.819 250.559L377.819 250.559L378.041 251.534ZM363.268 248.764L363.484 247.788L362.508 247.572L362.292 248.548L363.268 248.764ZM361.423 257.088L361.206 258.064L362.182 258.281L362.399 257.305L361.423 257.088ZM360.573 256.9L359.597 256.683L359.38 257.66L360.357 257.876L360.573 256.9ZM378.597 250.499L378.975 251.425L378.597 250.499ZM379.431 246.199L378.767 246.946L378.773 246.952L378.78 246.958L379.431 246.199ZM364.718 242.224L364.934 241.248L363.958 241.031L363.742 242.008L364.718 242.224ZM363.45 247.943L362.474 247.727L362.257 248.703L363.234 248.92L363.45 247.943ZM364.75 238.057L374.915 240.311L375.348 238.358L365.183 236.105L364.75 238.057ZM374.915 240.311C377.265 240.832 378.75 241.432 379.529 242.037L380.756 240.458C379.609 239.567 377.754 238.892 375.348 238.358L374.915 240.311ZM379.535 242.041C380.382 242.69 380.675 243.273 380.71 243.772L382.705 243.634C382.617 242.364 381.867 241.309 380.751 240.454L379.535 242.041ZM380.711 243.793C380.778 244.529 380.67 245.638 380.33 247.17L382.283 247.603C382.638 246.003 382.797 244.656 382.703 243.614L380.711 243.793ZM380.33 247.17L380.042 248.473L381.994 248.906L382.283 247.603L380.33 247.17ZM380.042 248.473C379.922 249.012 379.672 249.441 379.285 249.792L380.627 251.275C381.33 250.639 381.787 249.839 381.994 248.906L380.042 248.473ZM379.269 249.806C378.881 250.173 378.407 250.426 377.819 250.559L378.262 252.51C379.176 252.302 379.978 251.888 380.643 251.26L379.269 249.806ZM377.819 250.559C377.221 250.695 376.599 250.695 375.942 250.55L375.509 252.502C376.438 252.708 377.359 252.714 378.262 252.51L377.819 250.559ZM375.942 250.55L363.484 247.788L363.051 249.741L375.509 252.502L375.942 250.55ZM362.292 248.548L360.446 256.872L362.399 257.305L364.244 248.981L362.292 248.548ZM361.639 256.112L360.79 255.924L360.357 257.876L361.206 258.064L361.639 256.112ZM361.549 257.116L365.943 237.298L363.991 236.865L359.597 256.683L361.549 257.116ZM375.691 251.681C376.822 251.932 377.927 251.853 378.975 251.425L378.219 249.573C377.569 249.839 376.88 249.896 376.124 249.729L375.691 251.681ZM378.975 251.425C380.139 250.95 380.881 250.041 381.154 248.809L379.202 248.376C379.065 248.993 378.753 249.356 378.219 249.573L378.975 251.425ZM381.154 248.809C381.293 248.182 381.295 247.556 381.109 246.96C380.922 246.36 380.564 245.853 380.083 245.44L378.78 246.958C379.014 247.159 379.138 247.358 379.2 247.556C379.263 247.757 379.28 248.021 379.202 248.376L381.154 248.809ZM380.096 245.452C379.223 244.675 378.083 244.163 376.741 243.865L376.308 245.818C377.42 246.064 378.217 246.457 378.767 246.946L380.096 245.452ZM376.741 243.865L364.934 241.248L364.501 243.2L376.308 245.818L376.741 243.865ZM363.742 242.008L362.474 247.727L364.426 248.16L365.694 242.441L363.742 242.008ZM363.234 248.92L375.691 251.681L376.124 249.729L363.666 246.967L363.234 248.92Z" fill="white" mask="url(#path-24-outside-10_262_1328)"/>
<mask id="path-26-outside-11_262_1328" maskUnits="userSpaceOnUse" x="393.173" y="244.387" width="30.5782" height="29.0585" fill="black">
<rect fill="white" x="393.173" y="244.387" width="30.5782" height="29.0585"/>
<path d="M411.323 248.585C413.286 249.02 414.967 249.878 416.367 251.159C417.785 252.443 418.781 253.981 419.354 255.772C419.95 257.547 420.041 259.37 419.627 261.238C419.209 263.126 418.352 264.758 417.057 266.134C415.784 267.496 414.234 268.459 412.406 269.024C410.596 269.593 408.71 269.66 406.747 269.225L405.671 268.986C403.689 268.547 401.989 267.685 400.571 266.4C399.153 265.115 398.155 263.587 397.578 261.816C397.004 260.025 396.927 258.186 397.345 256.299C397.764 254.411 398.609 252.786 399.881 251.425C401.153 250.063 402.704 249.1 404.532 248.535C406.36 247.97 408.265 247.907 410.247 248.347L411.323 248.585ZM408.072 264.32C409.809 264.705 411.465 264.825 413.042 264.68C414.623 264.515 415.938 264.124 416.986 263.504C418.038 262.866 418.673 262.057 418.891 261.075C419.104 260.113 418.867 259.129 418.179 258.125C417.495 257.102 416.469 256.191 415.101 255.393C413.738 254.576 412.188 253.975 410.451 253.59L408.922 253.251C407.186 252.866 405.517 252.754 403.918 252.914C402.341 253.059 401.026 253.451 399.974 254.089C398.925 254.708 398.295 255.499 398.081 256.462C397.864 257.443 398.097 258.445 398.781 259.468C399.469 260.473 400.495 261.383 401.859 262.2C403.245 263.003 404.807 263.597 406.543 263.981L408.072 264.32Z"/>
</mask>
<path d="M411.323 248.585C413.286 249.02 414.967 249.878 416.367 251.159C417.785 252.443 418.781 253.981 419.354 255.772C419.95 257.547 420.041 259.37 419.627 261.238C419.209 263.126 418.352 264.758 417.057 266.134C415.784 267.496 414.234 268.459 412.406 269.024C410.596 269.593 408.71 269.66 406.747 269.225L405.671 268.986C403.689 268.547 401.989 267.685 400.571 266.4C399.153 265.115 398.155 263.587 397.578 261.816C397.004 260.025 396.927 258.186 397.345 256.299C397.764 254.411 398.609 252.786 399.881 251.425C401.153 250.063 402.704 249.1 404.532 248.535C406.36 247.97 408.265 247.907 410.247 248.347L411.323 248.585ZM408.072 264.32C409.809 264.705 411.465 264.825 413.042 264.68C414.623 264.515 415.938 264.124 416.986 263.504C418.038 262.866 418.673 262.057 418.891 261.075C419.104 260.113 418.867 259.129 418.179 258.125C417.495 257.102 416.469 256.191 415.101 255.393C413.738 254.576 412.188 253.975 410.451 253.59L408.922 253.251C407.186 252.866 405.517 252.754 403.918 252.914C402.341 253.059 401.026 253.451 399.974 254.089C398.925 254.708 398.295 255.499 398.081 256.462C397.864 257.443 398.097 258.445 398.781 259.468C399.469 260.473 400.495 261.383 401.859 262.2C403.245 263.003 404.807 263.597 406.543 263.981L408.072 264.32Z" fill="white"/>
<path d="M416.367 251.159L415.691 251.896L415.695 251.9L416.367 251.159ZM419.354 255.772L418.401 256.077L418.406 256.09L419.354 255.772ZM417.057 266.134L416.328 265.449L416.326 265.451L417.057 266.134ZM412.406 269.024L412.111 268.068L412.106 268.07L412.406 269.024ZM400.571 266.4L399.9 267.141L400.571 266.4ZM397.578 261.816L396.625 262.121L396.627 262.126L397.578 261.816ZM399.881 251.425L399.15 250.742L399.15 250.742L399.881 251.425ZM404.532 248.535L404.827 249.49L404.532 248.535ZM413.042 264.68L413.134 265.676L413.146 265.674L413.042 264.68ZM416.986 263.504L417.495 264.365L417.505 264.36L416.986 263.504ZM418.179 258.125L417.347 258.681L417.354 258.69L418.179 258.125ZM415.101 255.393L414.587 256.251L414.597 256.257L415.101 255.393ZM403.918 252.914L404.009 253.91L404.017 253.909L403.918 252.914ZM399.974 254.089L400.482 254.95L400.492 254.944L399.974 254.089ZM398.781 259.468L397.95 260.024L397.956 260.034L398.781 259.468ZM401.859 262.2L401.345 263.058L401.351 263.062L401.358 263.066L401.859 262.2ZM411.107 249.561C412.909 249.961 414.429 250.741 415.691 251.896L417.042 250.421C415.505 249.015 413.663 248.08 411.539 247.609L411.107 249.561ZM415.695 251.9C416.985 253.069 417.883 254.457 418.402 256.077L420.306 255.467C419.678 253.505 418.584 251.818 417.038 250.418L415.695 251.9ZM418.406 256.09C418.943 257.69 419.027 259.327 418.651 261.022L420.603 261.455C421.056 259.413 420.957 257.405 420.302 255.453L418.406 256.09ZM418.651 261.022C418.27 262.738 417.497 264.207 416.328 265.449L417.785 266.819C419.206 265.309 420.147 263.514 420.603 261.455L418.651 261.022ZM416.326 265.451C415.176 266.682 413.777 267.553 412.111 268.068L412.701 269.979C414.691 269.364 416.393 268.309 417.787 266.817L416.326 265.451ZM412.106 268.07C410.474 268.583 408.766 268.648 406.964 268.249L406.531 270.201C408.654 270.672 410.719 270.603 412.706 269.978L412.106 268.07ZM406.964 268.249L405.888 268.01L405.455 269.963L406.531 270.201L406.964 268.249ZM405.888 268.01C404.065 267.606 402.524 266.82 401.243 265.659L399.9 267.141C401.455 268.55 403.314 269.488 405.455 269.963L405.888 268.01ZM401.243 265.659C399.95 264.488 399.05 263.107 398.528 261.506L396.627 262.126C397.26 264.067 398.356 265.743 399.9 267.141L401.243 265.659ZM398.53 261.511C398.012 259.894 397.94 258.235 398.321 256.515L396.369 256.082C395.913 258.137 395.996 260.156 396.625 262.121L398.53 261.511ZM398.321 256.515C398.703 254.795 399.466 253.333 400.612 252.108L399.15 250.742C397.751 252.239 396.824 254.027 396.369 256.082L398.321 256.515ZM400.612 252.108C401.762 250.877 403.161 250.005 404.827 249.49L404.237 247.58C402.247 248.195 400.545 249.25 399.15 250.742L400.612 252.108ZM404.827 249.49C406.479 248.98 408.208 248.919 410.031 249.323L410.464 247.37C408.323 246.896 406.241 246.96 404.237 247.58L404.827 249.49ZM410.031 249.323L411.107 249.561L411.539 247.609L410.464 247.37L410.031 249.323ZM407.856 265.297C409.681 265.701 411.442 265.832 413.134 265.675L412.95 263.684C411.488 263.819 409.936 263.709 408.289 263.344L407.856 265.297ZM413.146 265.674C414.828 265.499 416.291 265.076 417.495 264.365L416.477 262.643C415.585 263.171 414.419 263.531 412.939 263.685L413.146 265.674ZM417.505 264.36C418.734 263.614 419.578 262.597 419.867 261.292L417.915 260.859C417.769 261.516 417.343 262.119 416.468 262.649L417.505 264.36ZM419.867 261.292C420.154 259.997 419.809 258.735 419.003 257.56L417.354 258.69C417.925 259.524 418.055 260.228 417.915 260.859L419.867 261.292ZM419.01 257.569C418.221 256.389 417.067 255.383 415.605 254.529L414.597 256.257C415.87 257 416.768 257.815 417.347 258.681L419.01 257.569ZM415.615 254.535C414.149 253.657 412.497 253.019 410.667 252.614L410.235 254.566C411.879 254.931 413.326 255.495 414.587 256.251L415.615 254.535ZM410.667 252.614L409.139 252.275L408.706 254.227L410.235 254.566L410.667 252.614ZM409.139 252.275C407.309 251.869 405.534 251.747 403.818 251.919L404.017 253.909C405.501 253.76 407.062 253.863 408.706 254.227L409.139 252.275ZM403.826 251.918C402.14 252.074 400.669 252.498 399.455 253.234L400.492 254.944C401.383 254.404 402.542 254.045 404.009 253.91L403.826 251.918ZM399.465 253.228C398.238 253.953 397.392 254.951 397.105 256.245L399.058 256.678C399.197 256.047 399.613 255.464 400.482 254.95L399.465 253.228ZM397.105 256.245C396.815 257.551 397.15 258.829 397.95 260.024L399.612 258.913C399.043 258.062 398.912 257.335 399.058 256.678L397.105 256.245ZM397.956 260.034C398.747 261.187 399.894 262.189 401.345 263.058L402.373 261.343C401.097 260.578 400.192 259.758 399.606 258.903L397.956 260.034ZM401.358 263.066C402.842 263.925 404.501 264.553 406.327 264.958L406.76 263.005C405.112 262.64 403.648 262.081 402.36 261.335L401.358 263.066ZM406.327 264.958L407.856 265.297L408.289 263.344L406.76 263.005L406.327 264.958Z" fill="white" mask="url(#path-26-outside-11_262_1328)"/>
<mask id="path-28-outside-12_262_1328" maskUnits="userSpaceOnUse" x="432.243" y="242.929" width="23.5277" height="26.5672" fill="black">
<rect fill="white" x="432.243" y="242.929" width="23.5277" height="26.5672"/>
<path d="M452.934 253.382L437.702 250.005L434.413 264.841L433.592 264.659L437.979 244.868L454.032 248.427L452.934 253.382Z"/>
</mask>
<path d="M452.934 253.382L437.702 250.005L434.413 264.841L433.592 264.659L437.979 244.868L454.032 248.427L452.934 253.382Z" fill="white"/>
<path d="M452.934 253.382L452.717 254.358L453.694 254.575L453.91 253.598L452.934 253.382ZM437.702 250.005L437.918 249.029L436.942 248.812L436.725 249.789L437.702 250.005ZM434.413 264.841L434.196 265.817L435.172 266.034L435.389 265.057L434.413 264.841ZM433.592 264.659L432.615 264.442L432.399 265.419L433.375 265.635L433.592 264.659ZM437.979 244.868L438.195 243.892L437.219 243.676L437.003 244.652L437.979 244.868ZM454.032 248.427L455.009 248.644L455.225 247.667L454.249 247.451L454.032 248.427ZM453.15 252.406L437.918 249.029L437.485 250.981L452.717 254.358L453.15 252.406ZM436.725 249.789L433.436 264.624L435.389 265.057L438.678 250.222L436.725 249.789ZM434.629 263.865L433.808 263.683L433.375 265.635L434.196 265.817L434.629 263.865ZM434.568 264.875L438.955 245.085L437.003 244.652L432.615 264.442L434.568 264.875ZM437.763 245.845L453.816 249.404L454.249 247.451L438.195 243.892L437.763 245.845ZM453.056 248.211L451.957 253.166L453.91 253.598L455.009 248.644L453.056 248.211Z" fill="white" mask="url(#path-28-outside-12_262_1328)"/>
<mask id="path-30-outside-13_262_1328" maskUnits="userSpaceOnUse" x="455.424" y="217.549" width="30.5782" height="29.0585" fill="black">
<rect fill="white" x="455.424" y="217.549" width="30.5782" height="29.0585"/>
<path d="M473.574 221.746C475.537 222.181 477.218 223.039 478.617 224.32C480.036 225.605 481.031 227.142 481.605 228.933C482.201 230.709 482.292 232.531 481.878 234.399C481.46 236.287 480.603 237.919 479.308 239.295C478.035 240.657 476.485 241.62 474.657 242.185C472.847 242.754 470.961 242.821 468.998 242.386L467.922 242.148C465.94 241.708 464.24 240.846 462.822 239.561C461.404 238.277 460.406 236.748 459.828 234.977C459.255 233.186 459.178 231.347 459.596 229.46C460.015 227.572 460.86 225.948 462.132 224.586C463.404 223.224 464.954 222.261 466.783 221.696C468.611 221.131 470.516 221.068 472.498 221.508L473.574 221.746ZM470.323 237.482C472.06 237.867 473.716 237.986 475.293 237.841C476.874 237.676 478.189 237.285 479.237 236.666C480.289 236.028 480.924 235.218 481.142 234.236C481.355 233.274 481.118 232.29 480.43 231.286C479.745 230.263 478.72 229.353 477.352 228.554C475.988 227.737 474.439 227.136 472.702 226.751L471.173 226.412C469.437 226.027 467.768 225.915 466.168 226.075C464.592 226.22 463.277 226.612 462.225 227.25C461.176 227.869 460.546 228.66 460.332 229.623C460.115 230.604 460.348 231.607 461.032 232.63C461.72 233.634 462.746 234.544 464.11 235.361C465.496 236.164 467.058 236.758 468.794 237.143L470.323 237.482Z"/>
</mask>
<path d="M473.574 221.746C475.537 222.181 477.218 223.039 478.617 224.32C480.036 225.605 481.031 227.142 481.605 228.933C482.201 230.709 482.292 232.531 481.878 234.399C481.46 236.287 480.603 237.919 479.308 239.295C478.035 240.657 476.485 241.62 474.657 242.185C472.847 242.754 470.961 242.821 468.998 242.386L467.922 242.148C465.94 241.708 464.24 240.846 462.822 239.561C461.404 238.277 460.406 236.748 459.828 234.977C459.255 233.186 459.178 231.347 459.596 229.46C460.015 227.572 460.86 225.948 462.132 224.586C463.404 223.224 464.954 222.261 466.783 221.696C468.611 221.131 470.516 221.068 472.498 221.508L473.574 221.746ZM470.323 237.482C472.06 237.867 473.716 237.986 475.293 237.841C476.874 237.676 478.189 237.285 479.237 236.666C480.289 236.028 480.924 235.218 481.142 234.236C481.355 233.274 481.118 232.29 480.43 231.286C479.745 230.263 478.72 229.353 477.352 228.554C475.988 227.737 474.439 227.136 472.702 226.751L471.173 226.412C469.437 226.027 467.768 225.915 466.168 226.075C464.592 226.22 463.277 226.612 462.225 227.25C461.176 227.869 460.546 228.66 460.332 229.623C460.115 230.604 460.348 231.607 461.032 232.63C461.72 233.634 462.746 234.544 464.11 235.361C465.496 236.164 467.058 236.758 468.794 237.143L470.323 237.482Z" fill="white"/>
<path d="M478.617 224.32L477.942 225.058L477.946 225.061L478.617 224.32ZM481.605 228.933L480.652 229.238L480.657 229.251L481.605 228.933ZM479.308 239.295L478.579 238.61L478.577 238.612L479.308 239.295ZM474.657 242.185L474.362 241.23L474.357 241.231L474.657 242.185ZM462.822 239.561L462.151 240.302L462.822 239.561ZM459.828 234.977L458.876 235.282L458.878 235.287L459.828 234.977ZM462.132 224.586L461.401 223.903L461.401 223.903L462.132 224.586ZM466.783 221.696L467.078 222.652L466.783 221.696ZM475.293 237.841L475.385 238.837L475.397 238.835L475.293 237.841ZM479.237 236.666L479.746 237.527L479.755 237.521L479.237 236.666ZM480.43 231.286L479.598 231.842L479.605 231.852L480.43 231.286ZM477.352 228.554L476.838 229.412L476.848 229.418L477.352 228.554ZM466.168 226.075L466.26 227.071L466.268 227.07L466.168 226.075ZM462.225 227.25L462.733 228.111L462.743 228.105L462.225 227.25ZM461.032 232.63L460.201 233.186L460.207 233.195L461.032 232.63ZM464.11 235.361L463.596 236.219L463.602 236.223L463.609 236.227L464.11 235.361ZM473.357 222.722C475.16 223.122 476.68 223.902 477.942 225.058L479.293 223.582C477.756 222.176 475.914 221.241 473.79 220.77L473.357 222.722ZM477.946 225.061C479.236 226.23 480.134 227.618 480.652 229.238L482.557 228.628C481.929 226.667 480.835 224.979 479.289 223.579L477.946 225.061ZM480.657 229.251C481.194 230.851 481.278 232.488 480.902 234.183L482.854 234.616C483.307 232.574 483.208 230.566 482.553 228.614L480.657 229.251ZM480.902 234.183C480.521 235.899 479.748 237.368 478.579 238.61L480.036 239.98C481.457 238.47 482.398 236.675 482.854 234.616L480.902 234.183ZM478.577 238.612C477.427 239.843 476.028 240.715 474.362 241.23L474.952 243.14C476.942 242.525 478.644 241.47 480.038 239.978L478.577 238.612ZM474.357 241.231C472.725 241.745 471.017 241.809 469.215 241.41L468.782 243.362C470.905 243.833 472.97 243.764 474.957 243.139L474.357 241.231ZM469.215 241.41L468.139 241.171L467.706 243.124L468.782 243.362L469.215 241.41ZM468.139 241.171C466.316 240.767 464.775 239.981 463.494 238.82L462.151 240.302C463.706 241.711 465.565 242.649 467.706 243.124L468.139 241.171ZM463.494 238.82C462.201 237.649 461.301 236.268 460.779 234.667L458.878 235.287C459.511 237.229 460.607 238.904 462.151 240.302L463.494 238.82ZM460.781 234.672C460.263 233.055 460.191 231.396 460.572 229.676L458.62 229.243C458.164 231.298 458.247 233.318 458.876 235.282L460.781 234.672ZM460.572 229.676C460.954 227.956 461.717 226.495 462.863 225.269L461.401 223.903C460.002 225.401 459.075 227.188 458.62 229.243L460.572 229.676ZM462.863 225.269C464.013 224.038 465.411 223.167 467.078 222.652L466.488 220.741C464.498 221.356 462.796 222.411 461.401 223.903L462.863 225.269ZM467.078 222.652C468.73 222.141 470.459 222.08 472.282 222.484L472.714 220.531C470.574 220.057 468.492 220.121 466.488 220.741L467.078 222.652ZM472.282 222.484L473.357 222.722L473.79 220.77L472.714 220.531L472.282 222.484ZM470.107 238.458C471.932 238.863 473.693 238.993 475.385 238.837L475.201 236.845C473.739 236.98 472.187 236.871 470.54 236.505L470.107 238.458ZM475.397 238.835C477.079 238.661 478.542 238.238 479.746 237.527L478.728 235.805C477.836 236.332 476.67 236.692 475.19 236.846L475.397 238.835ZM479.755 237.521C480.985 236.775 481.829 235.759 482.118 234.453L480.166 234.02C480.02 234.677 479.594 235.28 478.719 235.81L479.755 237.521ZM482.118 234.453C482.405 233.159 482.06 231.896 481.254 230.721L479.605 231.852C480.176 232.685 480.306 233.389 480.166 234.02L482.118 234.453ZM481.261 230.73C480.472 229.55 479.318 228.544 477.856 227.691L476.848 229.418C478.121 230.161 479.019 230.976 479.598 231.842L481.261 230.73ZM477.866 227.697C476.4 226.818 474.748 226.18 472.918 225.775L472.486 227.727C474.129 228.092 475.577 228.656 476.838 229.412L477.866 227.697ZM472.918 225.775L471.39 225.436L470.957 227.388L472.486 227.727L472.918 225.775ZM471.39 225.436C469.56 225.03 467.785 224.908 466.069 225.08L466.268 227.07C467.752 226.921 469.313 227.024 470.957 227.388L471.39 225.436ZM466.077 225.079C464.391 225.235 462.92 225.659 461.706 226.395L462.743 228.105C463.634 227.565 464.793 227.206 466.26 227.071L466.077 225.079ZM461.716 226.389C460.489 227.114 459.643 228.112 459.356 229.406L461.309 229.839C461.448 229.208 461.863 228.625 462.733 228.111L461.716 226.389ZM459.356 229.406C459.066 230.712 459.401 231.99 460.201 233.186L461.863 232.074C461.294 231.223 461.163 230.497 461.309 229.839L459.356 229.406ZM460.207 233.195C460.998 234.348 462.145 235.35 463.596 236.219L464.624 234.504C463.348 233.739 462.443 232.919 461.857 232.064L460.207 233.195ZM463.609 236.227C465.093 237.086 466.752 237.714 468.578 238.119L469.011 236.166C467.363 235.801 465.899 235.242 464.611 234.496L463.609 236.227ZM468.578 238.119L470.107 238.458L470.54 236.505L469.011 236.166L468.578 238.119Z" fill="white" mask="url(#path-30-outside-13_262_1328)"/>
<mask id="path-32-outside-14_262_1328" maskUnits="userSpaceOnUse" x="491.739" y="169" width="30.3618" height="28.0822" fill="black">
<rect fill="white" x="491.739" y="169" width="30.3618" height="28.0822"/>
<path d="M498.437 171.153L499.428 171.372L504.147 184.389L513.676 174.501L519.169 175.719L502.685 192.858L497.136 191.627L503.462 185.069L498.437 171.153Z"/>
</mask>
<path d="M498.437 171.153L499.428 171.372L504.147 184.389L513.676 174.501L519.169 175.719L502.685 192.858L497.136 191.627L503.462 185.069L498.437 171.153Z" fill="white"/>
<path d="M498.437 171.153L498.654 170.176L496.88 169.783L497.497 171.492L498.437 171.153ZM499.428 171.372L500.369 171.032L500.181 170.515L499.645 170.396L499.428 171.372ZM504.147 184.389L503.207 184.73L503.754 186.238L504.867 185.083L504.147 184.389ZM513.676 174.501L513.892 173.525L513.345 173.404L512.956 173.807L513.676 174.501ZM519.169 175.719L519.889 176.412L521.124 175.128L519.385 174.743L519.169 175.719ZM502.685 192.858L502.469 193.834L503.017 193.955L503.406 193.551L502.685 192.858ZM497.136 191.627L496.416 190.933L495.178 192.217L496.92 192.604L497.136 191.627ZM503.462 185.069L504.181 185.763L504.614 185.315L504.402 184.729L503.462 185.069ZM498.221 172.129L499.212 172.349L499.645 170.396L498.654 170.176L498.221 172.129ZM498.488 171.713L503.207 184.73L505.087 184.048L500.369 171.032L498.488 171.713ZM504.867 185.083L514.396 175.195L512.956 173.807L503.427 183.695L504.867 185.083ZM513.459 175.478L518.952 176.695L519.385 174.743L513.892 173.525L513.459 175.478ZM518.448 175.026L501.965 192.164L503.406 193.551L519.889 176.412L518.448 175.026ZM502.902 191.881L497.353 190.651L496.92 192.604L502.469 193.834L502.902 191.881ZM497.856 192.322L504.181 185.763L502.742 184.375L496.416 190.933L497.856 192.322ZM504.402 184.729L499.378 170.813L497.497 171.492L502.521 185.408L504.402 184.729Z" fill="white" mask="url(#path-32-outside-14_262_1328)"/>
<mask id="path-34-outside-15_262_1328" maskUnits="userSpaceOnUse" x="518.003" y="143.28" width="27.4329" height="27.4329" fill="black">
<rect fill="white" x="518.003" y="143.28" width="27.4329" height="27.4329"/>
<path d="M528.935 167.134L532.23 152.27L522.774 150.173L523.872 145.218L543.634 149.6L542.536 154.554L533.051 152.452L529.756 167.316L528.935 167.134Z"/>
</mask>
<path d="M528.935 167.134L532.23 152.27L522.774 150.173L523.872 145.218L543.634 149.6L542.536 154.554L533.051 152.452L529.756 167.316L528.935 167.134Z" fill="white"/>
<path d="M528.935 167.134L527.959 166.917L527.742 167.894L528.718 168.11L528.935 167.134ZM532.23 152.27L533.206 152.486L533.423 151.51L532.447 151.293L532.23 152.27ZM522.774 150.173L521.797 149.957L521.581 150.933L522.557 151.149L522.774 150.173ZM523.872 145.218L524.089 144.242L523.112 144.026L522.896 145.002L523.872 145.218ZM543.634 149.6L544.611 149.816L544.827 148.84L543.851 148.623L543.634 149.6ZM542.536 154.554L542.319 155.531L543.296 155.747L543.512 154.771L542.536 154.554ZM533.051 152.452L533.268 151.475L532.291 151.259L532.075 152.235L533.051 152.452ZM529.756 167.316L529.539 168.292L530.516 168.508L530.732 167.532L529.756 167.316ZM529.911 167.35L533.206 152.486L531.254 152.053L527.959 166.917L529.911 167.35ZM532.447 151.293L522.99 149.197L522.557 151.149L532.014 153.246L532.447 151.293ZM523.75 150.39L524.848 145.435L522.896 145.002L521.797 149.957L523.75 150.39ZM523.656 146.195L543.418 150.576L543.851 148.623L524.089 144.242L523.656 146.195ZM542.658 149.383L541.56 154.338L543.512 154.771L544.611 149.816L542.658 149.383ZM542.752 153.578L533.268 151.475L532.835 153.428L542.319 155.531L542.752 153.578ZM532.075 152.235L528.78 167.099L530.732 167.532L534.027 152.668L532.075 152.235ZM529.972 166.339L529.151 166.157L528.718 168.11L529.539 168.292L529.972 166.339Z" fill="white" mask="url(#path-34-outside-15_262_1328)"/>
<mask id="path-36-outside-16_262_1328" maskUnits="userSpaceOnUse" x="546.648" y="120.818" width="25.4803" height="27" fill="black">
<rect fill="white" x="546.648" y="120.818" width="25.4803" height="27"/>
<path d="M552.39 122.729L562.554 124.982C564.933 125.51 566.603 126.147 567.566 126.895C568.548 127.648 569.069 128.466 569.131 129.351C569.211 130.24 569.077 131.468 568.73 133.035L568.441 134.337C568.278 135.073 567.924 135.688 567.379 136.181C566.853 136.678 566.215 137.012 565.464 137.182C564.713 137.353 563.942 137.35 563.149 137.174L550.691 134.412L548.846 142.736L547.997 142.548L552.39 122.729ZM563.331 136.353C564.275 136.562 565.171 136.494 566.02 136.147C566.869 135.801 567.396 135.165 567.601 134.24C567.819 133.259 567.57 132.461 566.855 131.847C566.143 131.214 565.174 130.761 563.948 130.489L552.141 127.872L550.873 133.591L563.331 136.353Z"/>
</mask>
<path d="M552.39 122.729L562.554 124.982C564.933 125.51 566.603 126.147 567.566 126.895C568.548 127.648 569.069 128.466 569.131 129.351C569.211 130.24 569.077 131.468 568.73 133.035L568.441 134.337C568.278 135.073 567.924 135.688 567.379 136.181C566.853 136.678 566.215 137.012 565.464 137.182C564.713 137.353 563.942 137.35 563.149 137.174L550.691 134.412L548.846 142.736L547.997 142.548L552.39 122.729ZM563.331 136.353C564.275 136.562 565.171 136.494 566.02 136.147C566.869 135.801 567.396 135.165 567.601 134.24C567.819 133.259 567.57 132.461 566.855 131.847C566.143 131.214 565.174 130.761 563.948 130.489L552.141 127.872L550.873 133.591L563.331 136.353Z" fill="white"/>
<path d="M552.39 122.729L552.607 121.753L551.63 121.536L551.414 122.513L552.39 122.729ZM567.566 126.895L566.953 127.685L566.958 127.689L567.566 126.895ZM569.131 129.351L568.133 129.42L568.134 129.431L568.135 129.441L569.131 129.351ZM567.379 136.181L566.708 135.44L566.7 135.447L566.692 135.454L567.379 136.181ZM565.464 137.182L565.243 136.207L565.243 136.207L565.464 137.182ZM550.691 134.412L550.908 133.436L549.931 133.219L549.715 134.196L550.691 134.412ZM548.846 142.736L548.629 143.712L549.606 143.929L549.822 142.953L548.846 142.736ZM547.997 142.548L547.02 142.331L546.804 143.308L547.78 143.524L547.997 142.548ZM566.02 136.147L566.398 137.073L566.02 136.147ZM566.855 131.847L566.19 132.594L566.197 132.6L566.203 132.606L566.855 131.847ZM552.141 127.872L552.358 126.896L551.381 126.679L551.165 127.656L552.141 127.872ZM550.873 133.591L549.897 133.375L549.681 134.351L550.657 134.567L550.873 133.591ZM552.174 123.705L562.338 125.959L562.771 124.006L552.607 121.753L552.174 123.705ZM562.338 125.959C564.688 126.48 566.174 127.08 566.953 127.685L568.18 126.106C567.033 125.215 565.178 124.54 562.771 124.006L562.338 125.959ZM566.958 127.689C567.805 128.338 568.099 128.921 568.133 129.42L570.128 129.282C570.04 128.012 569.291 126.957 568.174 126.102L566.958 127.689ZM568.135 129.441C568.201 130.177 568.093 131.286 567.754 132.818L569.706 133.251C570.061 131.651 570.221 130.304 570.127 129.262L568.135 129.441ZM567.754 132.818L567.465 134.121L569.418 134.554L569.706 133.251L567.754 132.818ZM567.465 134.121C567.345 134.66 567.095 135.089 566.708 135.44L568.05 136.923C568.753 136.287 569.211 135.487 569.418 134.554L567.465 134.121ZM566.692 135.454C566.304 135.821 565.83 136.074 565.243 136.207L565.685 138.158C566.599 137.95 567.401 137.536 568.066 136.908L566.692 135.454ZM565.243 136.207C564.644 136.343 564.022 136.343 563.365 136.198L562.932 138.15C563.861 138.356 564.783 138.362 565.685 138.158L565.243 136.207ZM563.365 136.198L550.908 133.436L550.475 135.389L562.932 138.15L563.365 136.198ZM549.715 134.196L547.87 142.52L549.822 142.953L551.668 134.629L549.715 134.196ZM549.062 141.76L548.213 141.572L547.78 143.524L548.629 143.712L549.062 141.76ZM548.973 142.764L553.367 122.945L551.414 122.513L547.02 142.331L548.973 142.764ZM563.114 137.329C564.245 137.58 565.35 137.501 566.398 137.073L565.642 135.221C564.992 135.487 564.304 135.544 563.547 135.377L563.114 137.329ZM566.398 137.073C567.563 136.598 568.304 135.689 568.578 134.457L566.625 134.024C566.488 134.641 566.176 135.004 565.642 135.221L566.398 137.073ZM568.578 134.457C568.717 133.83 568.719 133.204 568.532 132.608C568.345 132.008 567.987 131.501 567.506 131.088L566.203 132.606C566.437 132.807 566.562 133.006 566.623 133.204C566.686 133.405 566.704 133.669 566.625 134.024L568.578 134.457ZM567.519 131.1C566.646 130.323 565.506 129.811 564.164 129.513L563.731 131.466C564.843 131.712 565.64 132.105 566.19 132.594L567.519 131.1ZM564.164 129.513L552.358 126.896L551.925 128.848L563.731 131.466L564.164 129.513ZM551.165 127.656L549.897 133.375L551.85 133.808L553.117 128.088L551.165 127.656ZM550.657 134.567L563.114 137.329L563.547 135.377L551.09 132.615L550.657 134.567Z" fill="white" mask="url(#path-36-outside-16_262_1328)"/>
<mask id="path-38-outside-17_262_1328" maskUnits="userSpaceOnUse" x="574.598" y="100.274" width="33.2907" height="28.7316" fill="black">
<rect fill="white" x="574.598" y="100.274" width="33.2907" height="28.7316"/>
<path d="M590.872 104.519L596.082 105.674L600.975 127.552L600.069 127.351L598.325 119.538L587.085 117.046L582.119 123.371L576.909 122.216L590.872 104.519ZM595.387 106.53L587.664 116.313L598.111 118.629L595.387 106.53Z"/>
</mask>
<path d="M590.872 104.519L596.082 105.674L600.975 127.552L600.069 127.351L598.325 119.538L587.085 117.046L582.119 123.371L576.909 122.216L590.872 104.519ZM595.387 106.53L587.664 116.313L598.111 118.629L595.387 106.53Z" fill="white"/>
<path d="M590.872 104.519L591.089 103.543L590.476 103.407L590.087 103.9L590.872 104.519ZM596.082 105.674L597.058 105.456L596.919 104.835L596.298 104.698L596.082 105.674ZM600.975 127.552L600.758 128.528L602.294 128.868L601.951 127.333L600.975 127.552ZM600.069 127.351L599.093 127.569L599.231 128.189L599.852 128.327L600.069 127.351ZM598.325 119.538L599.301 119.32L599.163 118.7L598.542 118.562L598.325 119.538ZM587.085 117.046L587.302 116.07L586.687 115.934L586.299 116.429L587.085 117.046ZM582.119 123.371L581.902 124.348L582.516 124.484L582.905 123.989L582.119 123.371ZM576.909 122.216L576.124 121.597L575.137 122.848L576.693 123.193L576.909 122.216ZM595.387 106.53L596.363 106.31L595.902 104.264L594.602 105.91L595.387 106.53ZM587.664 116.313L586.879 115.693L585.891 116.944L587.447 117.289L587.664 116.313ZM598.111 118.629L597.895 119.606L599.433 119.947L599.087 118.41L598.111 118.629ZM590.656 105.495L595.865 106.65L596.298 104.698L591.089 103.543L590.656 105.495ZM595.106 105.892L599.999 127.77L601.951 127.333L597.058 105.456L595.106 105.892ZM601.191 126.575L600.285 126.374L599.852 128.327L600.758 128.528L601.191 126.575ZM601.045 127.133L599.301 119.32L597.349 119.756L599.093 127.569L601.045 127.133ZM598.542 118.562L587.302 116.07L586.869 118.023L598.109 120.514L598.542 118.562ZM586.299 116.429L581.332 122.754L582.905 123.989L587.872 117.664L586.299 116.429ZM582.335 122.395L577.125 121.24L576.693 123.193L581.902 124.348L582.335 122.395ZM577.694 122.836L591.657 105.138L590.087 103.9L576.124 121.597L577.694 122.836ZM594.602 105.91L586.879 115.693L588.449 116.933L596.172 107.15L594.602 105.91ZM587.447 117.289L597.895 119.606L598.327 117.653L587.88 115.337L587.447 117.289ZM599.087 118.41L596.363 106.31L594.412 106.75L597.135 118.849L599.087 118.41Z" fill="white" mask="url(#path-38-outside-17_262_1328)"/>
</svg>
