<svg width="127" height="102" viewBox="0 0 127 102" fill="none" xmlns="http://www.w3.org/2000/svg">
<path d="M31.5966 3.84961H123.054V97.9209L31.5966 98.1377L31.3578 76.0288C31.3578 76.0288 25.6877 74.6814 23.0001 73.6445C20.2465 72.582 17.475 71.4182 15.12 69.7429C12.149 67.6293 9.30581 65.1548 7.47872 62.1565C5.59996 59.0734 4.82658 55.4684 4.37443 51.9691C3.86414 48.0197 3.74763 43.8956 4.85202 40.0476C5.77639 36.8268 7.53524 33.7295 9.86663 31.1607C12.5699 28.1821 16.1448 25.8244 19.8959 24.0078C22.8496 22.5774 26.2214 22.0021 29.4475 21.19C30.4708 20.9324 32.5518 20.5397 32.5518 20.5397L31.5966 3.84961Z" stroke="white" stroke-width="7.55906" stroke-linecap="square" stroke-linejoin="bevel"/>
<path d="M123.086 3.83472H28.6982V98.3932H123.086V3.83472Z" fill="white"/>
</svg>
