<svg width="147" height="175" viewBox="0 0 147 175" fill="none" xmlns="http://www.w3.org/2000/svg">
<path d="M23.8156 1.36703L120.332 1.00008C130.053 0.963124 123.151 14.2646 127.913 15.6212C132.887 17.0382 140.045 15.2292 142.628 17.5086C146.761 21.1562 145.223 33.7213 143.488 36.4559C141.24 39.9962 135.05 37.2729 134.016 40.0942C133.077 42.6573 132.838 50.0582 132.466 53.0578C132.016 56.6883 133.618 57.2423 133.029 60.9743C129.323 84.4604 123.948 130.403 121.215 149.676C120.797 152.625 118.403 149.488 117.256 160.237C116.52 167.142 117.642 173.747 107.922 173.768C85.8391 173.817 58.2723 173.464 36.0855 173.998C33.811 174.053 32.5105 172.872 30.5374 170.059C28.7006 165.574 28.7998 160.551 28.5288 155.035C28.428 152.986 25.059 151.557 24.4972 146.319C21.149 115.103 16.8414 87.2029 13.0044 57.6758C12.728 55.5482 14.5046 54.5575 13.9182 51.7384C13.7888 48.4747 13.3844 44.9807 12.7936 41.8081C12.1686 38.4792 9.75993 39.0241 7.02958 38.7179C3.75529 38.0478 1.88257 36.3655 1.47649 33.3708C0.077941 23.0573 1.91 17.9242 4.99112 16.4615C9.95157 14.1067 16.6696 19.1177 19.8711 13.6648C20.1954 9.92957 20.2368 1.38064 23.8156 1.36703Z" stroke="white" stroke-width="2" stroke-linecap="square" stroke-linejoin="bevel"/>
<path d="M17.7421 16.3196L129.539 16.1846M11.7776 38.9072L133.702 39.1035M15.1575 56.1915L130.074 56.3881M28.677 151.845L117.747 151.649" stroke="white" stroke-width="2" stroke-linecap="square" stroke-linejoin="bevel"/>
<path d="M92.9795 102.521C90.5173 115.396 73.3445 124.9 64.4599 121.792C55.8793 118.791 51.6107 113.53 53.8458 103.026C56.4505 90.7842 69.4845 81.46 78.686 82.4944C88.9133 83.6442 95.0576 91.6538 92.9795 102.521Z" stroke="white" stroke-width="2" stroke-linecap="square" stroke-linejoin="bevel"/>
<path d="M58.657 116.388C61.9112 116.789 65.3098 115.898 67.9356 113.958C71.2089 111.538 73.124 107.724 74.4025 103.888C74.8034 102.685 75.1537 101.466 75.5974 100.277C77.5524 95.0418 81.3639 90.5034 86.2116 87.6388" stroke="white" stroke-width="2" stroke-linecap="square" stroke-linejoin="bevel"/>
</svg>
