<svg width="292" height="278" viewBox="0 0 292 278" fill="none" xmlns="http://www.w3.org/2000/svg">
<path d="M15.688 225.913L113.467 225.534L109.766 267.257L18.9714 267.311L15.688 225.913Z" fill="#78623E" fill-opacity="0.772549"/>
<path d="M4.32788 81.9952L125.215 80.9114L112.32 225.451L14.9541 225.884L4.32788 81.9952Z" fill="#C6B181" fill-opacity="0.772549"/>
<path d="M3.87524 81.2588L125.275 81.583L109.704 267.454L19.3356 267.559L3.87524 81.2588Z" stroke="white" stroke-width="1.88976" stroke-linecap="square" stroke-linejoin="bevel"/>
<path d="M126.066 62.4341C128.244 69.4835 130.794 81.6781 130.13 81.9925L0 81.9321C0 81.9321 1.53778 62.1556 7.59833 54.4971C13.4476 47.1055 20.7083 38.8039 29.8078 32.9702C40.5954 26.0543 53.4883 22.2341 62.8969 22.2341C70.4647 22.2341 82.4942 25.7095 93.5889 29.8135C111.363 36.3884 124.511 57.3979 126.066 62.4341Z" fill="white" fill-opacity="0.772549"/>
<path d="M69.1154 0.0766387L73.4041 0L70.196 23.4094L66.2027 22.6431L69.1154 0.0766387Z" fill="white" fill-opacity="0.772549"/>
<path d="M165.582 114.651L280.584 128.342L242.871 273.381L154.309 262.727L165.582 114.651Z" fill="white"/>
<path d="M159.797 136.366L278.155 150.792L263.081 209.071L153.972 196.062L159.797 136.366Z" fill="#C3B17F" fill-opacity="0.772549"/>
<path d="M167.481 91.8748L281.514 105.741L284.742 118.51L289.538 119.333L287.605 130.123C287.605 130.123 154.213 114.923 154.462 114.722L156.779 103.187L161.109 103.273L167.481 91.8748Z" fill="#43423E" fill-opacity="0.772549"/>
</svg>
