<svg width="37" height="34" viewBox="0 0 37 34" fill="none" xmlns="http://www.w3.org/2000/svg">
<path d="M33.9167 17C33.9167 9.18004 27.01 2.83337 18.5 2.83337C9.99004 2.83337 3.08337 9.18004 3.08337 17C3.08337 24.82 9.99004 31.1667 18.5 31.1667" stroke="white" stroke-width="1.5" stroke-linecap="round" stroke-linejoin="round"/>
<path d="M12.3334 4.25H13.875C10.8688 12.5233 10.8688 21.4767 13.875 29.75H12.3334" stroke="white" stroke-width="1.5" stroke-linecap="round" stroke-linejoin="round"/>
<path d="M23.125 4.25C24.6204 8.38667 25.3758 12.6933 25.3758 17" stroke="white" stroke-width="1.5" stroke-linecap="round" stroke-linejoin="round"/>
<path d="M4.625 22.6667V21.25C9.12667 22.6242 13.8133 23.3184 18.5 23.3184" stroke="white" stroke-width="1.5" stroke-linecap="round" stroke-linejoin="round"/>
<path d="M4.625 12.75C13.6283 9.98748 23.3717 9.98748 32.375 12.75" stroke="white" stroke-width="1.5" stroke-linecap="round" stroke-linejoin="round"/>
<path d="M28.0583 30.3167C30.7829 30.3167 32.9917 28.287 32.9917 25.7834C32.9917 23.2797 30.7829 21.25 28.0583 21.25C25.3337 21.25 23.125 23.2797 23.125 25.7834C23.125 28.287 25.3337 30.3167 28.0583 30.3167Z" stroke="white" stroke-width="1.5" stroke-linecap="round" stroke-linejoin="round"/>
<path d="M33.9167 31.1667L32.375 29.75" stroke="white" stroke-width="1.5" stroke-linecap="round" stroke-linejoin="round"/>
</svg>
