<svg width="124" height="120" viewBox="0 0 124 120" fill="none" xmlns="http://www.w3.org/2000/svg">
<g filter="url(#filter0_d_121_875)">
<path d="M4.24 99.812C4.24 99.012 4.432 98.28 4.816 97.616C5.208 96.944 5.748 96.412 6.436 96.02C7.124 95.628 7.892 95.432 8.74 95.432H9.196C9.908 95.432 10.568 95.576 11.176 95.864C11.784 96.144 12.296 96.536 12.712 97.04C13.128 97.544 13.412 98.12 13.564 98.768L13.012 98.876C12.684 98.476 12.184 98.152 11.512 97.904C10.84 97.656 10.1 97.532 9.292 97.532H8.644C7.908 97.532 7.228 97.636 6.604 97.844C5.98 98.044 5.48 98.32 5.104 98.672C4.736 99.016 4.552 99.396 4.552 99.812C4.552 100.22 4.736 100.6 5.104 100.952C5.48 101.296 5.98 101.572 6.604 101.78C7.228 101.98 7.908 102.08 8.644 102.08H9.292C10.1 102.08 10.84 101.956 11.512 101.708C12.184 101.46 12.684 101.136 13.012 100.736L13.564 100.844C13.404 101.484 13.12 102.056 12.712 102.56C12.304 103.064 11.796 103.46 11.188 103.748C10.58 104.036 9.916 104.18 9.196 104.18H8.74C7.892 104.18 7.124 103.984 6.436 103.592C5.756 103.2 5.22 102.672 4.828 102.008C4.436 101.336 4.24 100.604 4.24 99.812ZM20.2046 95.432C21.0366 95.432 21.7926 95.628 22.4726 96.02C23.1606 96.412 23.7006 96.944 24.0926 97.616C24.4926 98.28 24.6926 99.008 24.6926 99.8C24.6926 100.6 24.4926 101.336 24.0926 102.008C23.7006 102.672 23.1606 103.2 22.4726 103.592C21.7926 103.984 21.0366 104.18 20.2046 104.18H19.7486C18.9086 104.18 18.1446 103.984 17.4566 103.592C16.7686 103.2 16.2286 102.672 15.8366 102.008C15.4446 101.336 15.2486 100.6 15.2486 99.8C15.2486 99 15.4446 98.268 15.8366 97.604C16.2286 96.94 16.7686 96.412 17.4566 96.02C18.1446 95.628 18.9086 95.432 19.7486 95.432H20.2046ZM20.3006 102.08C21.0366 102.08 21.7166 101.98 22.3406 101.78C22.9646 101.572 23.4606 101.296 23.8286 100.952C24.1966 100.6 24.3806 100.216 24.3806 99.8C24.3806 99.392 24.1966 99.016 23.8286 98.672C23.4606 98.32 22.9646 98.044 22.3406 97.844C21.7166 97.636 21.0366 97.532 20.3006 97.532H19.6526C18.9166 97.532 18.2326 97.636 17.6006 97.844C16.9766 98.044 16.4806 98.32 16.1126 98.672C15.7446 99.016 15.5606 99.392 15.5606 99.8C15.5606 100.216 15.7446 100.6 16.1126 100.952C16.4806 101.296 16.9766 101.572 17.6006 101.78C18.2326 101.98 18.9166 102.08 19.6526 102.08H20.3006ZM32.4344 99.968H26.9504V103.988H26.6144V95.6H33.4064V97.7H26.9504V99.62H32.4344V99.968ZM42.4661 101.9V104H35.3261V95.6H42.4661V97.7H35.6501V99.632H41.4821V99.98H35.6501V101.9H42.4661ZM48.5017 99.812C48.5017 99.012 48.6937 98.28 49.0777 97.616C49.4697 96.944 50.0097 96.412 50.6977 96.02C51.3857 95.628 52.1537 95.432 53.0017 95.432H53.4577C54.1697 95.432 54.8297 95.576 55.4377 95.864C56.0457 96.144 56.5577 96.536 56.9737 97.04C57.3897 97.544 57.6737 98.12 57.8257 98.768L57.2737 98.876C56.9457 98.476 56.4457 98.152 55.7737 97.904C55.1017 97.656 54.3617 97.532 53.5537 97.532H52.9057C52.1697 97.532 51.4897 97.636 50.8657 97.844C50.2417 98.044 49.7417 98.32 49.3657 98.672C48.9977 99.016 48.8137 99.396 48.8137 99.812C48.8137 100.22 48.9977 100.6 49.3657 100.952C49.7417 101.296 50.2417 101.572 50.8657 101.78C51.4897 101.98 52.1697 102.08 52.9057 102.08H53.5537C54.3617 102.08 55.1017 101.956 55.7737 101.708C56.4457 101.46 56.9457 101.136 57.2737 100.736L57.8257 100.844C57.6657 101.484 57.3817 102.056 56.9737 102.56C56.5657 103.064 56.0577 103.46 55.4497 103.748C54.8417 104.036 54.1777 104.18 53.4577 104.18H53.0017C52.1537 104.18 51.3857 103.984 50.6977 103.592C50.0177 103.2 49.4817 102.672 49.0897 102.008C48.6977 101.336 48.5017 100.604 48.5017 99.812ZM64.4663 95.432C65.2983 95.432 66.0543 95.628 66.7343 96.02C67.4223 96.412 67.9623 96.944 68.3543 97.616C68.7543 98.28 68.9543 99.008 68.9543 99.8C68.9543 100.6 68.7543 101.336 68.3543 102.008C67.9623 102.672 67.4223 103.2 66.7343 103.592C66.0543 103.984 65.2983 104.18 64.4663 104.18H64.0103C63.1703 104.18 62.4063 103.984 61.7183 103.592C61.0303 103.2 60.4903 102.672 60.0983 102.008C59.7063 101.336 59.5103 100.6 59.5103 99.8C59.5103 99 59.7063 98.268 60.0983 97.604C60.4903 96.94 61.0303 96.412 61.7183 96.02C62.4063 95.628 63.1703 95.432 64.0103 95.432H64.4663ZM64.5623 102.08C65.2983 102.08 65.9783 101.98 66.6023 101.78C67.2263 101.572 67.7223 101.296 68.0903 100.952C68.4583 100.6 68.6423 100.216 68.6423 99.8C68.6423 99.392 68.4583 99.016 68.0903 98.672C67.7223 98.32 67.2263 98.044 66.6023 97.844C65.9783 97.636 65.2983 97.532 64.5623 97.532H63.9143C63.1783 97.532 62.4943 97.636 61.8623 97.844C61.2383 98.044 60.7423 98.32 60.3743 98.672C60.0063 99.016 59.8223 99.392 59.8223 99.8C59.8223 100.216 60.0063 100.6 60.3743 100.952C60.7423 101.296 61.2383 101.572 61.8623 101.78C62.4943 101.98 63.1783 102.08 63.9143 102.08H64.5623ZM79.6121 103.292C79.6121 103.532 79.5201 103.74 79.3361 103.916C79.1601 104.092 78.9561 104.18 78.7241 104.18C78.3161 104.18 77.9761 104.1 77.7041 103.94C77.4321 103.772 77.2121 103.556 77.0441 103.292C76.8761 103.028 76.6921 102.676 76.4921 102.236C76.2921 101.812 76.1281 101.488 76.0001 101.264L75.6281 100.472H71.2241V104H70.8761V95.6H71.2241V95.612H75.1841C76.1361 95.612 76.8361 95.712 77.2841 95.912C77.7401 96.112 78.0401 96.432 78.1841 96.872C78.3281 97.312 78.4001 97.972 78.4001 98.852C78.3601 99.364 78.1641 99.764 77.8121 100.052C77.4681 100.332 77.0361 100.472 76.5161 100.472H76.0121L76.8761 102.26C77.0441 102.612 77.2121 102.916 77.3801 103.172C77.5561 103.42 77.7481 103.596 77.9561 103.7C77.8921 103.572 77.8601 103.44 77.8601 103.304C77.8601 103.056 77.9441 102.848 78.1121 102.68C78.2881 102.512 78.4961 102.428 78.7361 102.428C78.9761 102.428 79.1801 102.512 79.3481 102.68C79.5241 102.848 79.6121 103.052 79.6121 103.292ZM76.5161 100.124C76.9321 100.124 77.2921 100.012 77.5961 99.788C77.9001 99.564 78.0521 99.256 78.0521 98.864C78.0521 98.464 77.8801 98.172 77.5361 97.988C77.2001 97.796 76.7681 97.7 76.2401 97.7H71.2241V100.124H76.5161ZM81.7053 104H81.3573V95.6H83.4573L89.7933 102.98V95.6H90.1413V104H88.0413L81.7053 96.62V104Z" fill="white"/>
</g>
<mask id="path-2-inside-1_121_875" fill="white">
<path d="M8.483 0H124V120H8.483V0Z"/>
</mask>
<path d="M124 0H125V-1H124V0ZM124 120V121H125V120H124ZM8.483 1H124V-1H8.483V1ZM123 0V120H125V0H123ZM124 119H8.483V121H124V119Z" fill="white" mask="url(#path-2-inside-1_121_875)"/>
<path d="M8.80371 0.333191L8.48764 87.999" stroke="white"/>
<path d="M8.48291 110.667V120" stroke="white"/>
<path d="M48.9075 14.1273L82.3584 14C85.7274 13.9872 83.3354 18.6004 84.9858 19.0709C86.7098 19.5624 89.1906 18.935 90.0857 19.7255C91.5182 20.9906 90.9854 25.3484 90.3837 26.2968C89.6048 27.5247 87.4594 26.5802 87.1011 27.5587C86.7756 28.4476 86.6928 31.0144 86.564 32.0547C86.408 33.3139 86.963 33.506 86.7589 34.8003C85.4744 42.9458 83.6116 58.8797 82.6646 65.564C82.5197 66.5867 81.6899 65.4988 81.2924 69.2266C81.0371 71.6215 81.4262 73.9121 78.0574 73.9196C70.4038 73.9365 60.8496 73.814 53.16 73.9994C52.3717 74.0184 51.921 73.6087 51.2371 72.6331C50.6005 71.0778 50.6349 69.3357 50.541 67.4227C50.5061 66.7118 49.3384 66.2163 49.1437 64.3998C47.9833 53.5732 46.4903 43.897 45.1605 33.6563C45.0647 32.9184 45.6805 32.5749 45.4772 31.5971C45.4324 30.4652 45.2922 29.2534 45.0874 28.1531C44.8709 26.9986 44.036 27.1876 43.0897 27.0814C41.9549 26.8489 41.3059 26.2655 41.1651 25.2269C40.6804 21.6499 41.3154 19.8697 42.3833 19.3624C44.1025 18.5457 46.4308 20.2836 47.5404 18.3924C47.6528 17.097 47.6672 14.132 48.9075 14.1273Z" stroke="white" stroke-width="1.7" stroke-linecap="square" stroke-linejoin="bevel"/>
<path d="M46.8025 19.3134L85.5495 19.2666M44.7354 27.1473L86.9922 27.2154M45.9068 33.1419L85.7347 33.21M50.5924 66.3164L81.4625 66.2484" stroke="white" stroke-width="1.7" stroke-linecap="square" stroke-linejoin="bevel"/>
<path d="M72.8786 49.2103C72.0252 53.6757 66.0734 56.9717 62.9942 55.894C60.0203 54.8531 58.5409 53.0284 59.3155 49.3854C60.2183 45.1398 64.7356 41.906 67.9247 42.2647C71.4693 42.6635 73.5988 45.4414 72.8786 49.2103Z" stroke="white" stroke-width="1.7" stroke-linecap="square" stroke-linejoin="bevel"/>
<path d="M60.9829 54.0197C62.1108 54.1586 63.2887 53.8499 64.1987 53.1767C65.3332 52.3376 65.9969 51.015 66.44 49.6845C66.579 49.2673 66.7004 48.8442 66.8542 48.4321C67.5318 46.6164 68.8528 45.0423 70.5329 44.0488" stroke="white" stroke-width="1.7" stroke-linecap="square" stroke-linejoin="bevel"/>
<defs>
<filter id="filter0_d_121_875" x="0.23999" y="95.432" width="93.9014" height="16.748" filterUnits="userSpaceOnUse" color-interpolation-filters="sRGB">
<feFlood flood-opacity="0" result="BackgroundImageFix"/>
<feColorMatrix in="SourceAlpha" type="matrix" values="0 0 0 0 0 0 0 0 0 0 0 0 0 0 0 0 0 0 127 0" result="hardAlpha"/>
<feOffset dy="4"/>
<feGaussianBlur stdDeviation="2"/>
<feComposite in2="hardAlpha" operator="out"/>
<feColorMatrix type="matrix" values="0 0 0 0 0 0 0 0 0 0 0 0 0 0 0 0 0 0 0.25 0"/>
<feBlend mode="normal" in2="BackgroundImageFix" result="effect1_dropShadow_121_875"/>
<feBlend mode="normal" in="SourceGraphic" in2="effect1_dropShadow_121_875" result="shape"/>
</filter>
</defs>
</svg>
