<svg width="39" height="39" viewBox="0 0 39 39" fill="none" xmlns="http://www.w3.org/2000/svg">
<path d="M27.625 34.125H11.375C4.875 34.125 3.25 32.5 3.25 26V13C3.25 6.5 4.875 4.875 11.375 4.875H27.625C34.125 4.875 35.75 6.5 35.75 13V26C35.75 32.5 34.125 34.125 27.625 34.125Z" stroke="white" stroke-width="1.5" stroke-linecap="round" stroke-linejoin="round"/>
<path d="M22.75 13H30.875" stroke="white" stroke-width="1.5" stroke-linecap="round" stroke-linejoin="round"/>
<path d="M24.375 19.5H30.875" stroke="white" stroke-width="1.5" stroke-linecap="round" stroke-linejoin="round"/>
<path d="M27.625 26H30.875" stroke="white" stroke-width="1.5" stroke-linecap="round" stroke-linejoin="round"/>
<path d="M13.8126 18.3462C15.437 18.3462 16.7538 17.0294 16.7538 15.405C16.7538 13.7806 15.437 12.4637 13.8126 12.4637C12.1882 12.4637 10.8713 13.7806 10.8713 15.405C10.8713 17.0294 12.1882 18.3462 13.8126 18.3462Z" stroke="white" stroke-width="1.5" stroke-linecap="round" stroke-linejoin="round"/>
<path d="M19.5 26.5362C19.2725 24.18 17.4038 22.3275 15.0475 22.1162C14.235 22.035 13.4062 22.035 12.5775 22.1162C10.2212 22.3437 8.3525 24.18 8.125 26.5362" stroke="white" stroke-width="1.5" stroke-linecap="round" stroke-linejoin="round"/>
</svg>
