<svg width="37" height="35" viewBox="0 0 37 35" fill="none" xmlns="http://www.w3.org/2000/svg">
<path d="M10.3755 28.7291C11.6396 27.4458 13.5667 27.5479 14.6767 28.9479L16.2338 30.9166C17.4825 32.477 19.5021 32.477 20.7509 30.9166L22.308 28.9479C23.418 27.5479 25.345 27.4458 26.6092 28.7291C29.3534 31.5 31.5888 30.5812 31.5888 26.702V10.2666C31.6042 4.38954 30.155 2.91663 24.3275 2.91663H12.6725C6.84504 2.91663 5.39587 4.38954 5.39587 10.2666V26.6875C5.39587 30.5812 7.64671 31.4854 10.3755 28.7291Z" stroke="white" stroke-width="1.5" stroke-linecap="round" stroke-linejoin="round"/>
<path d="M13.875 18.9584L23.125 10.2084" stroke="white" stroke-width="1.5" stroke-linecap="round" stroke-linejoin="round"/>
<path d="M23.1165 18.9583H23.1303" stroke="white" stroke-width="2" stroke-linecap="round" stroke-linejoin="round"/>
<path d="M13.8665 10.9375H13.8803" stroke="white" stroke-width="2" stroke-linecap="round" stroke-linejoin="round"/>
</svg>
