<svg width="148" height="176" viewBox="0 0 148 176" fill="none" xmlns="http://www.w3.org/2000/svg">
<path d="M24.0416 1.36895L121.514 1.00008C131.331 0.962932 124.361 14.3338 129.17 15.6975C134.193 17.122 141.422 15.3035 144.031 17.5948C148.204 21.2615 146.652 33.8922 144.899 36.6411C142.629 40.1999 136.378 37.4624 135.334 40.2984C134.385 42.8749 134.144 50.3144 133.768 53.3297C133.314 56.9792 134.931 57.536 134.336 61.2876C130.594 84.8963 125.166 131.079 122.406 150.453C121.984 153.417 119.566 150.264 118.408 161.068C117.664 168.01 118.798 174.649 108.981 174.67C86.6795 174.72 58.8396 174.364 36.433 174.902C34.136 174.957 32.8226 173.77 30.83 170.942C28.9749 166.434 29.0751 161.385 28.8014 155.84C28.6997 153.779 25.2973 152.344 24.73 147.078C21.3485 115.699 16.9983 87.6531 13.1233 57.9718C12.8441 55.8331 14.6383 54.8373 14.0462 52.0034C13.9155 48.7227 13.5071 45.2104 12.9104 42.0213C12.2792 38.6749 9.8467 39.2228 7.08931 38.9149C3.78258 38.2413 1.89132 36.5502 1.48121 33.5399C0.0688083 23.1725 1.91902 18.0126 5.03065 16.5423C10.0402 14.1752 16.8248 19.2123 20.058 13.731C20.3855 9.97621 20.4274 1.38263 24.0416 1.36895Z" stroke="white" stroke-width="2" stroke-linecap="square" stroke-linejoin="bevel"/>
<path d="M17.908 16.3999L130.812 16.2642M11.8844 39.1054L135.016 39.3028M15.2978 56.4801L131.352 56.6776M28.9512 152.633L118.903 152.436" stroke="white" stroke-width="2" stroke-linecap="square" stroke-linejoin="bevel"/>
<path d="M93.8905 103.051C91.4039 115.993 74.061 125.547 65.0885 122.423C56.4228 119.406 52.112 114.118 54.3692 103.559C56.9998 91.2532 70.1628 81.8803 79.4555 82.9201C89.7841 84.0759 95.9892 92.1273 93.8905 103.051Z" stroke="white" stroke-width="2" stroke-linecap="square" stroke-linejoin="bevel"/>
<path d="M59.228 116.991C62.5145 117.394 65.9468 116.499 68.5985 114.548C71.9042 112.116 73.8384 108.282 75.1295 104.426C75.5344 103.217 75.8882 101.991 76.3363 100.796C78.3107 95.5335 82.1599 90.9714 87.0556 88.0918" stroke="white" stroke-width="2" stroke-linecap="square" stroke-linejoin="bevel"/>
</svg>
