<svg width="112" height="20" viewBox="0 0 112 20" fill="none" xmlns="http://www.w3.org/2000/svg">
<path d="M9.61958 1.17082C9.73932 0.802296 10.2607 0.802296 10.3804 1.17082L12.1553 6.63344C12.2089 6.79825 12.3625 6.90983 12.5358 6.90983H18.2795C18.667 6.90983 18.8281 7.40568 18.5146 7.63344L13.8678 11.0095C13.7276 11.1114 13.669 11.2919 13.7225 11.4567L15.4974 16.9193C15.6172 17.2879 15.1954 17.5943 14.8819 17.3666L10.2351 13.9905C10.0949 13.8886 9.90508 13.8886 9.76489 13.9905L5.11811 17.3666C4.80462 17.5943 4.38283 17.2879 4.50257 16.9193L6.27748 11.4567C6.33103 11.2919 6.27237 11.1114 6.13217 11.0095L1.48539 7.63344C1.17191 7.40568 1.33302 6.90983 1.72051 6.90983H7.46424C7.63753 6.90983 7.79112 6.79825 7.84467 6.63344L9.61958 1.17082Z" fill="#D6BCA3"/>
<path d="M32.6196 1.17082C32.7393 0.802296 33.2607 0.802296 33.3804 1.17082L35.1553 6.63344C35.2089 6.79825 35.3625 6.90983 35.5358 6.90983H41.2795C41.667 6.90983 41.8281 7.40568 41.5146 7.63344L36.8678 11.0095C36.7276 11.1114 36.669 11.2919 36.7225 11.4567L38.4974 16.9193C38.6172 17.2879 38.1954 17.5943 37.8819 17.3666L33.2351 13.9905C33.0949 13.8886 32.9051 13.8886 32.7649 13.9905L28.1181 17.3666C27.8046 17.5943 27.3828 17.2879 27.5026 16.9193L29.2775 11.4567C29.331 11.2919 29.2724 11.1114 29.1322 11.0095L24.4854 7.63344C24.1719 7.40568 24.333 6.90983 24.7205 6.90983H30.4642C30.6375 6.90983 30.7911 6.79825 30.8447 6.63344L32.6196 1.17082Z" fill="#D6BCA3"/>
<path d="M55.6196 1.17082C55.7393 0.802296 56.2607 0.802296 56.3804 1.17082L58.1553 6.63344C58.2089 6.79825 58.3625 6.90983 58.5358 6.90983H64.2795C64.667 6.90983 64.8281 7.40568 64.5146 7.63344L59.8678 11.0095C59.7276 11.1114 59.669 11.2919 59.7225 11.4567L61.4974 16.9193C61.6172 17.2879 61.1954 17.5943 60.8819 17.3666L56.2351 13.9905C56.0949 13.8886 55.9051 13.8886 55.7649 13.9905L51.1181 17.3666C50.8046 17.5943 50.3828 17.2879 50.5026 16.9193L52.2775 11.4567C52.331 11.2919 52.2724 11.1114 52.1322 11.0095L47.4854 7.63344C47.1719 7.40568 47.333 6.90983 47.7205 6.90983H53.4642C53.6375 6.90983 53.7911 6.79825 53.8447 6.63344L55.6196 1.17082Z" fill="#D6BCA3"/>
<path d="M78.6196 1.17082C78.7393 0.802296 79.2607 0.802296 79.3804 1.17082L81.1553 6.63344C81.2089 6.79825 81.3625 6.90983 81.5358 6.90983H87.2795C87.667 6.90983 87.8281 7.40568 87.5146 7.63344L82.8678 11.0095C82.7276 11.1114 82.669 11.2919 82.7225 11.4567L84.4974 16.9193C84.6172 17.2879 84.1954 17.5943 83.8819 17.3666L79.2351 13.9905C79.0949 13.8886 78.9051 13.8886 78.7649 13.9905L74.1181 17.3666C73.8046 17.5943 73.3828 17.2879 73.5026 16.9193L75.2775 11.4567C75.331 11.2919 75.2724 11.1114 75.1322 11.0095L70.4854 7.63344C70.1719 7.40568 70.333 6.90983 70.7205 6.90983H76.4642C76.6375 6.90983 76.7911 6.79825 76.8447 6.63344L78.6196 1.17082Z" fill="#D6BCA3"/>
<path d="M101.62 1.17082C101.739 0.802296 102.261 0.802296 102.38 1.17082L104.155 6.63344C104.209 6.79825 104.362 6.90983 104.536 6.90983H110.279C110.667 6.90983 110.828 7.40568 110.515 7.63344L105.868 11.0095C105.728 11.1114 105.669 11.2919 105.723 11.4567L107.497 16.9193C107.617 17.2879 107.195 17.5943 106.882 17.3666L102.235 13.9905C102.095 13.8886 101.905 13.8886 101.765 13.9905L97.1181 17.3666C96.8046 17.5943 96.3828 17.2879 96.5026 16.9193L98.2775 11.4567C98.331 11.2919 98.2724 11.1114 98.1322 11.0095L93.4854 7.63344C93.1719 7.40568 93.333 6.90983 93.7205 6.90983H99.4642C99.6375 6.90983 99.7911 6.79825 99.8447 6.63344L101.62 1.17082Z" fill="#D6BCA3"/>
</svg>
