<svg width="80" height="80" viewBox="0 0 80 80" fill="none" xmlns="http://www.w3.org/2000/svg">
<path d="M29.865 45.7037C30.5158 45.2993 34.4968 42.6502 38.4202 40.0131C40.3878 38.6906 42.35 37.3649 43.8864 36.3159C44.0392 36.2116 44.1884 36.1096 44.3334 36.0103C43.8427 36.4886 43.2958 37.0215 42.7174 37.585C39.4489 40.7693 35.1754 44.9329 34.3545 45.7699L34.3542 45.7702C33.3092 46.8365 33.0831 48.0447 33.4146 49.123C33.72 50.1166 34.4597 50.8841 35.1465 51.3171L35.1469 51.3173C36.3569 52.0793 45.1699 57.9894 46.4836 58.9275C47.9568 59.9813 49.5053 60.4977 50.9784 60.4977C52.1187 60.4977 52.853 59.7223 53.313 58.9713C53.7761 58.2153 54.1233 57.2299 54.4285 56.2938L54.4286 56.2934C54.6364 55.655 54.9952 53.7726 55.4122 51.3685C55.8374 48.9174 56.3404 45.8152 56.8335 42.6495C57.8174 36.3326 58.77 29.7095 58.9815 27.5045L58.9815 27.504C59.1303 25.9445 58.6445 24.5691 57.3189 23.9318C56.7895 23.6752 56.2088 23.5804 55.6311 23.5804C54.6379 23.5804 53.5297 23.8602 52.4136 24.2643M29.865 45.7037L29.3373 44.8542M29.865 45.7037C29.865 45.7036 29.8651 45.7036 29.8651 45.7036L29.3373 44.8542M29.865 45.7037C28.85 46.3344 27.3676 46.7478 25.8637 46.7478C25.2124 46.7478 24.5424 46.6699 23.8889 46.4904L23.888 46.4901C21.9383 45.9526 18.6282 44.949 17.291 44.4727L17.2906 44.4725C16.6345 44.2385 16.0398 43.9627 15.6102 43.552C15.1202 43.0834 14.9166 42.5125 14.9166 41.8879C14.9166 40.8286 15.6645 40.107 16.316 39.6515C16.9997 39.1736 17.8806 38.7774 18.6864 38.4347L18.6868 38.4345C20.3704 37.7195 50.0598 25.1112 52.4136 24.2643M29.3373 44.8542C28.5014 45.3737 27.207 45.7478 25.8637 45.7478C25.2909 45.7478 24.7111 45.6792 24.1538 45.5261M29.3373 44.8542C30.5998 44.0699 45.1791 34.3141 46.2249 33.4592C46.4915 33.2408 46.7489 33.1502 46.9639 33.1502C47.5883 33.1502 47.8859 33.9196 47.2495 34.5578M52.4136 24.2643L52.7521 25.2053M52.4136 24.2643C52.4129 24.2645 52.4123 24.2648 52.4116 24.265L52.7521 25.2053M52.7521 25.2053C50.4336 26.0395 20.7909 38.6274 19.0778 39.3549M52.7521 25.2053L19.0778 39.3549M19.0778 39.3549C17.4558 40.0447 15.9166 40.7974 15.9166 41.8879C15.9166 42.655 16.3726 43.0834 17.6265 43.5306C18.9303 43.995 22.2136 44.9912 24.1538 45.5261M19.0778 39.3549L24.1538 45.5261M24.1538 45.5261L46.5414 33.8516C46.5422 33.8508 46.543 33.8501 46.5437 33.8493C46.5438 33.8492 46.544 33.849 46.5441 33.8489C46.585 33.8074 46.6012 33.7808 46.6067 33.7695M47.2495 34.5578L46.8957 34.204C46.9613 34.1561 46.9958 34.1475 46.9959 34.1475C46.996 34.1475 46.9855 34.1502 46.9639 34.1502C46.9186 34.1502 46.8552 34.1371 46.7911 34.0994L46.6486 33.9569C46.6321 33.9285 46.6207 33.9 46.6135 33.8734C46.5984 33.8169 46.6032 33.7826 46.6067 33.7695M47.2495 34.5578C46.9266 34.8807 45.2976 36.4676 43.3243 38.3899C40.074 41.5565 35.8893 45.6332 35.0684 46.4701L46.8952 34.2044L47.2495 34.5578ZM46.6067 33.7695C46.6086 33.7655 46.6092 33.7635 46.609 33.7634C46.6088 33.7634 46.6078 33.7654 46.6067 33.7695ZM51.9254 22.911L51.9255 22.9109C53.4039 22.3781 54.6069 22.1404 55.6311 22.1404C56.506 22.1404 57.2797 22.3118 57.9382 22.6291L57.9407 22.6303C59.6603 23.4532 60.6442 25.2539 60.4172 27.6393C60.2296 29.5939 59.2939 36.1982 58.2868 42.69C57.7843 45.9289 57.2662 49.1264 56.8178 51.6849C56.3623 54.2839 55.994 56.1294 55.7955 56.7393C55.4793 57.7097 55.0405 59.0378 54.2605 60.1279C53.5057 61.1827 52.4913 61.9378 50.9784 61.9378C49.1973 61.9378 47.3511 61.3195 45.6473 60.1018L45.6463 60.1011C44.3133 59.1509 35.4749 53.2289 34.379 52.5378L34.3787 52.5377C32.9612 51.6443 32.0358 50.2028 31.8624 48.7221L31.8623 48.7216C31.8349 48.4883 31.8279 48.2497 31.8381 48.0066L31.9124 46.2215L30.3519 47.0916C29.1119 47.7831 27.4909 48.1912 25.8637 48.1912C25.0395 48.1912 24.2443 48.085 23.502 47.881C21.5502 47.3439 18.1952 46.3263 16.8039 45.8307C15.5957 45.3992 14.7713 44.8392 14.251 44.2033C13.7424 43.5816 13.4732 42.826 13.4732 41.8879C13.4732 40.5397 14.1199 39.5703 15.049 38.8047C16.006 38.0162 17.1888 37.5074 18.1219 37.1107L18.2121 37.0724C21.8544 35.5262 49.5798 23.7561 51.9254 22.911ZM1.43994 39.9999C1.43994 18.7242 18.7242 1.43994 39.9999 1.43994C61.2757 1.43994 78.5599 18.7242 78.5599 39.9999C78.5599 61.2757 61.2757 78.5599 39.9999 78.5599C18.7242 78.5599 1.43994 61.2757 1.43994 39.9999ZM77.1199 39.9999C77.1199 19.4788 60.5211 2.87994 39.9999 2.87994C19.4787 2.87994 2.87994 19.4788 2.87994 39.9999C2.87994 60.5211 19.4787 77.1199 39.9999 77.1199C60.5211 77.1199 77.1199 60.5211 77.1199 39.9999Z" stroke="white" stroke-width="2"/>
</svg>
