<svg width="34" height="26" viewBox="0 0 34 26" fill="none" xmlns="http://www.w3.org/2000/svg">
<path d="M12 20.5C15.5899 20.5 18.5 17.5899 18.5 14C18.5 10.4101 15.5899 7.5 12 7.5C8.41015 7.5 5.5 10.4101 5.5 14C5.5 17.5899 8.41015 20.5 12 20.5Z" stroke="white" stroke-width="1.5" stroke-linecap="round" stroke-linejoin="round"/>
<path d="M4.86 21.14L4.99 21.01M12 4.08V4M12 24V23.92M2.08 14H2M4.99 6.99L4.86 6.86" stroke="white" stroke-width="2" stroke-linecap="round" stroke-linejoin="round"/>
<path d="M12.03 12.42C12.39 17.57 16.76 21.76 21.99 21.99C25.68 22.15 28.98 20.43 30.96 17.72C31.78 16.61 31.34 15.87 29.97 16.12C29.3 16.24 28.61 16.29 27.89 16.26C23 16.06 19 11.97 18.98 7.13996C18.97 5.83996 19.24 4.60996 19.73 3.48996C20.27 2.24996 19.62 1.65996 18.37 2.18996C14.41 3.85996 11.7 7.84996 12.03 12.42Z" stroke="white" stroke-width="1.5" stroke-linecap="round" stroke-linejoin="round"/>
</svg>
