<svg width="81" height="80" viewBox="0 0 81 80" fill="none" xmlns="http://www.w3.org/2000/svg">
<mask id="path-1-inside-1_72_357" fill="white">
<path d="M40.5 0.439941C18.4182 0.439941 0.47998 18.1719 0.47998 39.9999C0.47998 61.8279 18.4182 79.5599 40.5 79.5599C62.5818 79.5599 80.52 61.8279 80.52 39.9999C80.52 18.1719 62.5818 0.439941 40.5 0.439941ZM40.5 3.87994C60.7011 3.87994 77.04 20.031 77.04 39.9999C77.04 59.9688 60.7011 76.1199 40.5 76.1199C20.2989 76.1199 3.95998 59.9688 3.95998 39.9999C3.95998 20.031 20.2989 3.87994 40.5 3.87994ZM23.1034 27.9599L16.0822 27.9633C16.0822 27.9633 15.6804 27.9409 15.1952 28.0036C14.71 28.0663 13.9932 28.0954 13.2581 28.9174L13.2547 28.9207L13.2513 28.9241C12.5975 29.6632 12.6224 30.5235 12.7042 30.9968C12.7856 31.4684 12.9692 31.8232 12.9692 31.8232V31.8266C13.0367 31.9903 18.1347 44.3377 24.5613 50.9717C29.0945 55.6541 33.9426 57.1999 38.2604 57.1999H40.5C41.2368 57.1999 41.8949 57.1668 42.624 56.7935C43.3531 56.4201 43.98 55.3898 43.98 54.5897C43.98 53.7277 44.0014 52.892 44.1125 52.4263C44.2163 51.9913 44.1763 52.0981 44.2179 52.097C44.2596 52.106 44.3355 52.1234 44.4795 52.1878C44.79 52.3265 45.2696 52.6361 45.8015 53.0444C46.8638 53.8596 48.1221 55.0423 49.533 55.957C51.5539 57.281 53.7471 57.1999 53.7471 57.1999H60.979L61.0571 57.1932C61.0571 57.1932 62.1668 57.1683 63.3069 56.4777C63.8769 56.1324 64.5544 55.4989 64.7818 54.5494C65.0093 53.5999 64.7188 52.6037 64.1599 51.7275C63.9557 51.4062 62.9645 49.9861 59.0079 46.5138C57.9857 45.6176 57.2886 44.9833 57.013 44.646C56.9151 44.5262 56.9069 44.5378 56.8872 44.5317C56.9103 44.4729 57.1389 43.9971 57.7504 43.2115C58.3878 42.3928 59.3564 41.252 60.6017 39.6842C62.189 37.6852 63.3027 35.7631 64.0036 34.1412C64.354 33.3303 64.6024 32.5944 64.7512 31.9274C64.9001 31.2603 65.0188 30.7059 64.7988 29.9151C64.6347 29.3265 64.189 28.7992 63.7521 28.521C63.3152 28.2427 62.9079 28.1378 62.5422 28.0708C61.811 27.9367 61.1658 27.9599 60.5644 27.9599C59.3049 27.9599 53.7062 28.0036 53.2441 28.0036C52.7017 28.0036 51.8365 28.2269 51.4362 28.4538C50.4422 29.0165 50.1312 29.7874 50.1312 29.7874L50.036 29.952L49.9816 30.1368C49.9816 30.1368 48.7067 34.2136 47.3954 36.3147H47.392C45.85 38.79 44.6998 39.7718 44.1941 40.0503C44.1404 40.0799 44.1701 40.0642 44.1329 40.0839C44.0933 39.97 44.0434 39.8132 44.0106 39.5229C43.9366 38.8689 43.98 37.9479 43.98 37.0571C43.98 34.5899 44.1674 33.0515 43.9596 31.5948C43.8557 30.8664 43.5911 30.0553 42.9876 29.4313C42.3842 28.8073 41.6046 28.5002 40.8262 28.3228H40.8228C40.0116 28.1381 39.1373 27.9795 37.037 27.9599C34.3609 27.9353 32.618 28.0173 31.0693 28.699L31.0523 28.7091L31.0387 28.7158C30.4268 28.9999 29.9444 29.3256 29.5196 29.7606C29.3072 29.978 29.0552 30.1364 28.8807 30.8288C28.7935 31.1751 28.7839 31.8301 29.1798 32.3607C29.5757 32.8913 30.1305 33.0514 30.4576 33.0931C30.3973 33.0853 30.7149 33.1544 30.9606 33.2745C31.2062 33.3945 31.4194 33.5673 31.4737 33.6373V33.6406C31.451 33.6115 31.6869 34.1909 31.749 34.719C31.8111 35.2471 31.8 35.6731 31.8 35.6731L31.7966 35.7772L31.8068 35.8813C31.8068 35.8813 31.9136 37.05 31.8578 38.2564C31.8298 38.8596 31.7527 39.4668 31.6504 39.8387C31.645 39.8584 31.6426 39.8515 31.6369 39.8689C31.2012 39.5682 30.1967 38.5202 28.8128 36.261C27.5335 34.171 26.3353 30.4123 26.3353 30.4123L26.3081 30.3283L26.2775 30.2477C26.2775 30.2477 26.0541 29.408 25.0677 28.7225C24.1431 28.0791 23.2631 27.9902 23.2631 27.9902L23.1034 27.9599ZM22.699 31.3999C22.7985 31.4359 23.0066 31.51 23.0456 31.5276L23.0048 31.4067L23.0592 31.531L23.066 31.5343V31.5377H23.0694C22.9819 31.4772 23.0561 31.5372 23.066 31.5511C23.1141 31.7132 24.1765 35.3309 25.8357 38.0414C27.3472 40.509 28.4639 41.8914 29.6828 42.7177C30.9004 43.5432 32.5378 43.4581 33.3701 43.0301C34.4823 42.4591 34.7932 41.5207 35.0081 40.739C35.223 39.9573 35.2996 39.1643 35.3344 38.4143C35.4006 36.9833 35.2873 35.8127 35.2766 35.6966C35.2783 35.6319 35.2938 35.0728 35.2052 34.3192C35.1159 33.5599 34.9558 32.6162 34.274 31.6687C35.0377 31.5565 35.4617 31.3857 37.003 31.3999C38.9686 31.4182 39.2676 31.4993 40.0412 31.6754C40.4625 31.7715 40.5093 31.851 40.4694 31.8098C40.4295 31.7685 40.4659 31.741 40.5136 32.0752C40.609 32.7434 40.5 34.4572 40.5 37.0571C40.5 37.79 40.4284 38.8235 40.551 39.9059C40.6734 40.9875 41.0154 42.3715 42.3385 43.1813C43.0924 43.6425 44.5325 43.8011 45.8899 43.0536C47.2472 42.3061 48.6401 40.8722 50.3554 38.1187C52.0498 35.4038 53.0631 31.8343 53.1727 31.457C53.1727 31.457 53.1921 31.4446 53.2033 31.4369C53.2341 31.4384 53.195 31.4436 53.2441 31.4436C53.8886 31.4436 59.3878 31.3999 60.5644 31.3999C60.888 31.3999 61.0302 31.4172 61.2712 31.4268C61.1738 31.7982 61.0428 32.2306 60.8022 32.7874C60.2368 34.0959 59.2664 35.7932 57.8626 37.561C56.6528 39.084 55.713 40.1887 54.9943 41.1119C54.2756 42.0351 53.711 42.7633 53.4752 43.8162C53.2394 44.8691 53.6893 46.0566 54.3044 46.8094C54.9195 47.5621 55.6807 48.1961 56.6969 49.087C60.5251 52.4466 61.1532 53.4635 61.2135 53.5584V53.5617C61.2781 53.6631 61.2362 53.5612 61.261 53.6121C61.044 53.679 60.7856 53.7547 60.7615 53.7599H53.7199H53.7097C53.7097 53.7599 52.4146 53.718 51.4531 53.0881L51.4497 53.0847H51.4463C50.4292 52.4262 49.1999 51.2968 47.9358 50.3267C47.3037 49.8416 46.6601 49.387 45.9137 49.0535C45.1673 48.7199 44.2212 48.4834 43.2255 48.778C41.7844 49.2044 40.9846 50.5602 40.7277 51.6368C40.5433 52.4097 40.5705 53.0818 40.5645 53.7566C40.5149 53.7592 40.5579 53.7599 40.5 53.7599H38.2604C34.7238 53.7599 31.0446 52.6927 27.0761 48.5932C21.9167 43.2673 17.3135 32.9679 16.6226 31.4033L22.699 31.3999ZM53.0504 31.4134C53.0188 31.4203 53.1092 31.4271 53.1829 31.4335C53.173 31.4389 53.1838 31.4288 53.1694 31.4369C53.1679 31.4082 53.0929 31.404 53.0504 31.4134Z"/>
</mask>
<path d="M40.5 0.439941C18.4182 0.439941 0.47998 18.1719 0.47998 39.9999C0.47998 61.8279 18.4182 79.5599 40.5 79.5599C62.5818 79.5599 80.52 61.8279 80.52 39.9999C80.52 18.1719 62.5818 0.439941 40.5 0.439941ZM40.5 3.87994C60.7011 3.87994 77.04 20.031 77.04 39.9999C77.04 59.9688 60.7011 76.1199 40.5 76.1199C20.2989 76.1199 3.95998 59.9688 3.95998 39.9999C3.95998 20.031 20.2989 3.87994 40.5 3.87994ZM23.1034 27.9599L16.0822 27.9633C16.0822 27.9633 15.6804 27.9409 15.1952 28.0036C14.71 28.0663 13.9932 28.0954 13.2581 28.9174L13.2547 28.9207L13.2513 28.9241C12.5975 29.6632 12.6224 30.5235 12.7042 30.9968C12.7856 31.4684 12.9692 31.8232 12.9692 31.8232V31.8266C13.0367 31.9903 18.1347 44.3377 24.5613 50.9717C29.0945 55.6541 33.9426 57.1999 38.2604 57.1999H40.5C41.2368 57.1999 41.8949 57.1668 42.624 56.7935C43.3531 56.4201 43.98 55.3898 43.98 54.5897C43.98 53.7277 44.0014 52.892 44.1125 52.4263C44.2163 51.9913 44.1763 52.0981 44.2179 52.097C44.2596 52.106 44.3355 52.1234 44.4795 52.1878C44.79 52.3265 45.2696 52.6361 45.8015 53.0444C46.8638 53.8596 48.1221 55.0423 49.533 55.957C51.5539 57.281 53.7471 57.1999 53.7471 57.1999H60.979L61.0571 57.1932C61.0571 57.1932 62.1668 57.1683 63.3069 56.4777C63.8769 56.1324 64.5544 55.4989 64.7818 54.5494C65.0093 53.5999 64.7188 52.6037 64.1599 51.7275C63.9557 51.4062 62.9645 49.9861 59.0079 46.5138C57.9857 45.6176 57.2886 44.9833 57.013 44.646C56.9151 44.5262 56.9069 44.5378 56.8872 44.5317C56.9103 44.4729 57.1389 43.9971 57.7504 43.2115C58.3878 42.3928 59.3564 41.252 60.6017 39.6842C62.189 37.6852 63.3027 35.7631 64.0036 34.1412C64.354 33.3303 64.6024 32.5944 64.7512 31.9274C64.9001 31.2603 65.0188 30.7059 64.7988 29.9151C64.6347 29.3265 64.189 28.7992 63.7521 28.521C63.3152 28.2427 62.9079 28.1378 62.5422 28.0708C61.811 27.9367 61.1658 27.9599 60.5644 27.9599C59.3049 27.9599 53.7062 28.0036 53.2441 28.0036C52.7017 28.0036 51.8365 28.2269 51.4362 28.4538C50.4422 29.0165 50.1312 29.7874 50.1312 29.7874L50.036 29.952L49.9816 30.1368C49.9816 30.1368 48.7067 34.2136 47.3954 36.3147H47.392C45.85 38.79 44.6998 39.7718 44.1941 40.0503C44.1404 40.0799 44.1701 40.0642 44.1329 40.0839C44.0933 39.97 44.0434 39.8132 44.0106 39.5229C43.9366 38.8689 43.98 37.9479 43.98 37.0571C43.98 34.5899 44.1674 33.0515 43.9596 31.5948C43.8557 30.8664 43.5911 30.0553 42.9876 29.4313C42.3842 28.8073 41.6046 28.5002 40.8262 28.3228H40.8228C40.0116 28.1381 39.1373 27.9795 37.037 27.9599C34.3609 27.9353 32.618 28.0173 31.0693 28.699L31.0523 28.7091L31.0387 28.7158C30.4268 28.9999 29.9444 29.3256 29.5196 29.7606C29.3072 29.978 29.0552 30.1364 28.8807 30.8288C28.7935 31.1751 28.7839 31.8301 29.1798 32.3607C29.5757 32.8913 30.1305 33.0514 30.4576 33.0931C30.3973 33.0853 30.7149 33.1544 30.9606 33.2745C31.2062 33.3945 31.4194 33.5673 31.4737 33.6373V33.6406C31.451 33.6115 31.6869 34.1909 31.749 34.719C31.8111 35.2471 31.8 35.6731 31.8 35.6731L31.7966 35.7772L31.8068 35.8813C31.8068 35.8813 31.9136 37.05 31.8578 38.2564C31.8298 38.8596 31.7527 39.4668 31.6504 39.8387C31.645 39.8584 31.6426 39.8515 31.6369 39.8689C31.2012 39.5682 30.1967 38.5202 28.8128 36.261C27.5335 34.171 26.3353 30.4123 26.3353 30.4123L26.3081 30.3283L26.2775 30.2477C26.2775 30.2477 26.0541 29.408 25.0677 28.7225C24.1431 28.0791 23.2631 27.9902 23.2631 27.9902L23.1034 27.9599ZM22.699 31.3999C22.7985 31.4359 23.0066 31.51 23.0456 31.5276L23.0048 31.4067L23.0592 31.531L23.066 31.5343V31.5377H23.0694C22.9819 31.4772 23.0561 31.5372 23.066 31.5511C23.1141 31.7132 24.1765 35.3309 25.8357 38.0414C27.3472 40.509 28.4639 41.8914 29.6828 42.7177C30.9004 43.5432 32.5378 43.4581 33.3701 43.0301C34.4823 42.4591 34.7932 41.5207 35.0081 40.739C35.223 39.9573 35.2996 39.1643 35.3344 38.4143C35.4006 36.9833 35.2873 35.8127 35.2766 35.6966C35.2783 35.6319 35.2938 35.0728 35.2052 34.3192C35.1159 33.5599 34.9558 32.6162 34.274 31.6687C35.0377 31.5565 35.4617 31.3857 37.003 31.3999C38.9686 31.4182 39.2676 31.4993 40.0412 31.6754C40.4625 31.7715 40.5093 31.851 40.4694 31.8098C40.4295 31.7685 40.4659 31.741 40.5136 32.0752C40.609 32.7434 40.5 34.4572 40.5 37.0571C40.5 37.79 40.4284 38.8235 40.551 39.9059C40.6734 40.9875 41.0154 42.3715 42.3385 43.1813C43.0924 43.6425 44.5325 43.8011 45.8899 43.0536C47.2472 42.3061 48.6401 40.8722 50.3554 38.1187C52.0498 35.4038 53.0631 31.8343 53.1727 31.457C53.1727 31.457 53.1921 31.4446 53.2033 31.4369C53.2341 31.4384 53.195 31.4436 53.2441 31.4436C53.8886 31.4436 59.3878 31.3999 60.5644 31.3999C60.888 31.3999 61.0302 31.4172 61.2712 31.4268C61.1738 31.7982 61.0428 32.2306 60.8022 32.7874C60.2368 34.0959 59.2664 35.7932 57.8626 37.561C56.6528 39.084 55.713 40.1887 54.9943 41.1119C54.2756 42.0351 53.711 42.7633 53.4752 43.8162C53.2394 44.8691 53.6893 46.0566 54.3044 46.8094C54.9195 47.5621 55.6807 48.1961 56.6969 49.087C60.5251 52.4466 61.1532 53.4635 61.2135 53.5584V53.5617C61.2781 53.6631 61.2362 53.5612 61.261 53.6121C61.044 53.679 60.7856 53.7547 60.7615 53.7599H53.7199H53.7097C53.7097 53.7599 52.4146 53.718 51.4531 53.0881L51.4497 53.0847H51.4463C50.4292 52.4262 49.1999 51.2968 47.9358 50.3267C47.3037 49.8416 46.6601 49.387 45.9137 49.0535C45.1673 48.7199 44.2212 48.4834 43.2255 48.778C41.7844 49.2044 40.9846 50.5602 40.7277 51.6368C40.5433 52.4097 40.5705 53.0818 40.5645 53.7566C40.5149 53.7592 40.5579 53.7599 40.5 53.7599H38.2604C34.7238 53.7599 31.0446 52.6927 27.0761 48.5932C21.9167 43.2673 17.3135 32.9679 16.6226 31.4033L22.699 31.3999ZM53.0504 31.4134C53.0188 31.4203 53.1092 31.4271 53.1829 31.4335C53.173 31.4389 53.1838 31.4288 53.1694 31.4369C53.1679 31.4082 53.0929 31.404 53.0504 31.4134Z" stroke="white" stroke-width="4" mask="url(#path-1-inside-1_72_357)"/>
</svg>
